<svg version="1.1" xmlns="http://www.w3.org/2000/svg" xmlns:xlink="http://www.w3.org/1999/xlink" width="1024" height="780" viewBox="0 0 1024 780"><g id="code_structure4"><path id="Shape_2_" d="M137.000,404.000 L474.000,404.000 L349.000,215.000 L337.000,215.000 L137.000,404.000 zM526.000,404.000 L791.000,404.000 L375.000,215.000 L363.000,215.000 L526.000,404.000 z" fill="#4474CD" fill-opacity="0.051" /><path id="Rounded-Rectangl" d="M526.000,404.000 L790.438,404.000 L790.438,452.000 L526.000,452.000 L526.000,404.000 z" fill="#F49620" /><path id="anim-options" d="M775.835,432.444 C775.416,433.909 774.775,435.260 773.912,436.499 C773.049,437.738 772.145,438.619 771.200,439.142 C771.200,439.142 770.781,437.928 770.781,437.928 C771.883,437.083 772.770,435.770 773.439,433.991 C774.109,432.211 774.451,430.237 774.465,428.067 C774.465,428.067 774.465,427.723 774.465,427.723 C774.465,426.219 774.308,424.821 773.993,423.528 C773.677,422.235 773.239,421.077 772.677,420.053 C772.114,419.029 771.482,418.230 770.781,417.657 C770.781,417.657 771.200,416.444 771.200,416.444 C772.145,416.966 773.045,417.840 773.901,419.065 C774.757,420.289 775.398,421.639 775.824,423.114 C776.250,424.590 776.463,426.169 776.463,427.852 C776.463,429.449 776.254,430.980 775.835,432.444 zM765.060,427.379 C766.052,427.601 766.856,427.866 767.472,428.174 C768.088,428.482 768.544,428.853 768.842,429.286 C769.139,429.719 769.287,430.247 769.287,430.870 C769.287,431.909 768.872,432.741 768.041,433.368 C767.211,433.995 766.133,434.308 764.808,434.308 C763.877,434.308 763.053,434.143 762.337,433.814 C761.621,433.484 761.061,433.024 760.656,432.433 C760.251,431.843 760.049,431.203 760.049,430.516 C760.049,430.516 762.036,430.516 762.036,430.516 C762.072,431.182 762.339,431.710 762.837,432.100 C763.334,432.491 763.992,432.686 764.808,432.686 C765.560,432.686 766.163,432.534 766.618,432.229 C767.073,431.925 767.300,431.519 767.300,431.010 C767.300,430.473 767.098,430.056 766.693,429.759 C766.289,429.461 765.583,429.205 764.577,428.990 C763.571,428.776 762.772,428.518 762.181,428.217 C761.591,427.916 761.154,427.558 760.871,427.143 C760.588,426.728 760.447,426.233 760.447,425.660 C760.447,424.708 760.849,423.902 761.655,423.243 C762.461,422.585 763.490,422.255 764.743,422.255 C766.061,422.255 767.130,422.595 767.950,423.276 C768.770,423.956 769.180,424.826 769.180,425.886 C769.180,425.886 767.182,425.886 767.182,425.886 C767.182,425.342 766.951,424.873 766.489,424.479 C766.027,424.085 765.445,423.888 764.743,423.888 C764.020,423.888 763.454,424.046 763.046,424.361 C762.638,424.676 762.434,425.088 762.434,425.596 C762.434,426.076 762.624,426.438 763.003,426.681 C763.383,426.924 764.068,427.157 765.060,427.379 zM755.548,426.402 C755.541,425.564 755.349,424.944 754.973,424.543 C754.597,424.142 754.012,423.942 753.217,423.942 C752.573,423.942 752.007,424.114 751.520,424.457 C751.033,424.801 750.653,425.252 750.381,425.811 C750.381,425.811 750.381,434.093 750.381,434.093 L748.394,434.093 L748.394,422.470 L750.274,422.470 C750.274,422.470 750.338,423.931 750.338,423.931 C751.226,422.814 752.386,422.255 753.819,422.255 C756.275,422.255 757.514,423.641 757.535,426.412 C757.535,426.412 757.535,434.093 757.535,434.093 L755.548,434.093 C755.548,434.093 755.548,426.402 755.548,426.402 zM743.393,433.556 C742.588,434.057 741.662,434.308 740.617,434.308 C739.041,434.308 737.764,433.760 736.787,432.664 C735.809,431.569 735.321,430.118 735.321,428.314 C735.321,428.314 735.321,428.174 735.321,428.174 C735.321,427.035 735.544,426.011 735.992,425.102 C736.440,424.192 737.063,423.490 737.861,422.996 C738.660,422.502 739.571,422.255 740.595,422.255 C742.178,422.255 743.458,422.803 744.435,423.899 C745.413,424.994 745.902,426.452 745.902,428.271 C745.902,428.271 745.902,428.410 745.902,428.410 C745.902,429.542 745.685,430.557 745.252,431.456 C744.818,432.355 744.199,433.055 743.393,433.556 zM743.007,425.075 C742.401,424.284 741.598,423.888 740.595,423.888 C739.614,423.888 738.823,424.278 738.221,425.059 C737.619,425.839 737.319,426.957 737.319,428.410 C737.319,429.699 737.618,430.734 738.216,431.515 C738.814,432.296 739.614,432.686 740.617,432.686 C741.626,432.686 742.428,432.290 743.023,431.499 C743.617,430.708 743.914,429.599 743.914,428.174 C743.914,426.899 743.612,425.866 743.007,425.075 zM731.690,420.515 C731.303,420.515 731.011,420.407 730.814,420.193 C730.617,419.978 730.519,419.709 730.519,419.387 C730.519,419.065 730.617,418.793 730.814,418.571 C731.011,418.349 731.303,418.238 731.690,418.238 C732.077,418.238 732.370,418.349 732.571,418.571 C732.771,418.793 732.871,419.065 732.871,419.387 C732.871,419.709 732.771,419.978 732.571,420.193 C732.370,420.407 732.077,420.515 731.690,420.515 zM726.716,434.308 C725.828,434.308 725.159,434.039 724.707,433.502 C724.256,432.965 724.031,432.202 724.031,431.214 C724.031,431.214 724.031,424.006 724.031,424.006 L721.914,424.006 L721.914,422.470 L724.031,422.470 L724.031,419.655 L726.018,419.655 L726.018,422.470 L728.188,422.470 L728.188,424.006 L726.018,424.006 C726.018,424.006 726.018,431.223 726.018,431.223 C726.018,431.689 726.115,432.039 726.308,432.272 C726.501,432.505 726.831,432.621 727.296,432.621 C727.525,432.621 727.840,432.578 728.242,432.492 C728.242,432.492 728.242,434.094 728.242,434.094 C727.719,434.237 727.210,434.308 726.716,434.308 zM716.296,434.308 C714.885,434.308 713.775,433.860 712.966,432.965 C712.966,432.965 712.966,438.562 712.966,438.562 L710.979,438.562 L710.979,422.470 L712.794,422.470 C712.794,422.470 712.891,423.759 712.891,423.759 C713.700,422.756 714.825,422.255 716.264,422.255 C717.660,422.255 718.765,422.781 719.578,423.834 C720.391,424.887 720.797,426.352 720.797,428.228 C720.797,428.228 720.797,428.410 720.797,428.410 C720.797,430.179 720.393,431.605 719.583,432.686 C718.774,433.767 717.678,434.308 716.296,434.308 zM717.972,425.080 C717.413,424.321 716.647,423.942 715.673,423.942 C714.470,423.942 713.568,424.475 712.966,425.542 C712.966,425.542 712.966,431.096 712.966,431.096 C713.560,432.156 714.470,432.686 715.695,432.686 C716.647,432.686 717.404,432.308 717.967,431.552 C718.529,430.797 718.810,429.674 718.810,428.185 C718.810,426.874 718.531,425.839 717.972,425.080 zM705.978,433.556 C705.173,434.057 704.247,434.308 703.201,434.308 C701.626,434.308 700.349,433.760 699.372,432.664 C698.394,431.569 697.906,430.118 697.906,428.314 C697.906,428.314 697.906,428.174 697.906,428.174 C697.906,427.035 698.129,426.011 698.577,425.102 C699.024,424.192 699.648,423.490 700.446,422.996 C701.245,422.502 702.156,422.255 703.180,422.255 C704.763,422.255 706.043,422.803 707.020,423.899 C707.998,424.994 708.487,426.452 708.487,428.271 C708.487,428.271 708.487,428.410 708.487,428.410 C708.487,429.542 708.270,430.557 707.837,431.456 C707.403,432.355 706.784,433.055 705.978,433.556 zM705.592,425.075 C704.986,424.284 704.183,423.888 703.180,423.888 C702.199,423.888 701.408,424.278 700.806,425.059 C700.204,425.839 699.904,426.957 699.904,428.410 C699.904,429.699 700.203,430.734 700.801,431.515 C701.398,432.296 702.199,432.686 703.201,432.686 C704.211,432.686 705.013,432.290 705.608,431.499 C706.202,430.708 706.499,429.599 706.499,428.174 C706.499,426.899 706.197,425.866 705.592,425.075 zM688.001,426.423 C688.001,425.592 687.811,424.971 687.432,424.559 C687.052,424.148 686.415,423.942 685.520,423.942 C684.782,423.942 684.170,424.162 683.683,424.602 C683.196,425.043 682.913,425.635 682.834,426.380 C682.834,426.380 682.834,434.093 682.834,434.093 L680.836,434.093 C680.836,434.093 680.836,426.477 680.836,426.477 C680.836,424.787 680.009,423.942 678.355,423.942 C677.051,423.942 676.160,424.497 675.680,425.607 C675.680,425.607 675.680,434.093 675.680,434.093 L673.693,434.093 L673.693,422.470 L675.573,422.470 C675.573,422.470 675.626,423.759 675.626,423.759 C676.478,422.756 677.628,422.255 679.075,422.255 C680.700,422.255 681.807,422.878 682.394,424.124 C682.781,423.566 683.284,423.114 683.903,422.771 C684.523,422.427 685.255,422.255 686.100,422.255 C688.649,422.255 689.946,423.605 689.989,426.305 C689.989,426.305 689.989,434.093 689.989,434.093 L688.001,434.093 C688.001,434.093 688.001,426.423 688.001,426.423 zM669.546,420.515 C669.160,420.515 668.868,420.407 668.671,420.193 C668.474,419.978 668.375,419.709 668.375,419.387 C668.375,419.065 668.474,418.793 668.671,418.571 C668.868,418.349 669.160,418.238 669.546,418.238 C669.933,418.238 670.227,418.349 670.427,418.571 C670.627,418.793 670.728,419.065 670.728,419.387 C670.728,419.709 670.627,419.978 670.427,420.193 C670.227,420.407 669.933,420.515 669.546,420.515 zM663.380,426.402 C663.373,425.564 663.181,424.944 662.806,424.543 C662.430,424.142 661.844,423.942 661.049,423.942 C660.405,423.942 659.839,424.114 659.352,424.457 C658.865,424.801 658.485,425.252 658.213,425.811 C658.213,425.811 658.213,434.093 658.213,434.093 L656.226,434.093 L656.226,422.470 L658.106,422.470 C658.106,422.470 658.170,423.931 658.170,423.931 C659.058,422.814 660.218,422.255 661.651,422.255 C664.107,422.255 665.346,423.641 665.368,426.412 C665.368,426.412 665.368,434.093 665.368,434.093 L663.380,434.093 C663.380,434.093 663.380,426.402 663.380,426.402 zM651.156,432.868 C650.232,433.828 649.129,434.308 647.847,434.308 C646.701,434.308 645.761,433.984 645.027,433.336 C644.293,432.688 643.926,431.866 643.926,430.870 C643.926,429.660 644.386,428.720 645.306,428.051 C646.227,427.381 647.521,427.046 649.190,427.046 C649.190,427.046 651.123,427.046 651.123,427.046 C651.123,427.046 651.123,426.133 651.123,426.133 C651.123,425.438 650.916,424.885 650.500,424.473 C650.085,424.062 649.473,423.856 648.663,423.856 C647.954,423.856 647.360,424.035 646.880,424.393 C646.400,424.751 646.160,425.184 646.160,425.693 C646.160,425.693 644.162,425.693 644.162,425.693 C644.162,425.113 644.368,424.552 644.780,424.011 C645.192,423.471 645.750,423.043 646.456,422.728 C647.161,422.413 647.936,422.255 648.782,422.255 C650.121,422.255 651.170,422.590 651.929,423.260 C652.688,423.929 653.082,424.851 653.111,426.026 C653.111,426.026 653.111,431.375 653.111,431.375 C653.111,432.442 653.247,433.291 653.519,433.921 C653.519,433.921 653.519,434.093 653.519,434.093 C653.519,434.093 651.435,434.093 651.435,434.093 C651.320,433.864 651.227,433.456 651.156,432.868 zM651.123,428.453 C651.123,428.453 649.566,428.453 649.566,428.453 C647.131,428.453 645.913,429.166 645.913,430.591 C645.913,431.214 646.121,431.701 646.536,432.052 C646.952,432.403 647.485,432.578 648.137,432.578 C648.760,432.578 649.351,432.417 649.910,432.095 C650.468,431.773 650.873,431.354 651.123,430.838 C651.123,430.838 651.123,428.453 651.123,428.453 zM642.336,437.928 C642.336,437.928 641.928,439.142 641.928,439.142 C640.976,438.612 640.066,437.724 639.200,436.478 C637.509,434.043 636.664,431.132 636.664,427.744 C636.664,426.126 636.881,424.572 637.314,423.082 C637.748,421.593 638.394,420.239 639.253,419.022 C640.113,417.804 641.004,416.945 641.928,416.444 C641.928,416.444 642.336,417.754 642.336,417.754 C641.291,418.556 640.433,419.781 639.764,421.428 C639.094,423.075 638.727,424.919 638.662,426.960 C638.662,426.960 638.652,427.873 638.652,427.873 C638.652,430.638 639.157,433.037 640.166,435.071 C640.775,436.288 641.498,437.240 642.336,437.928 zM624.477,427.379 C625.469,427.601 626.273,427.866 626.889,428.174 C627.505,428.482 627.961,428.853 628.259,429.286 C628.556,429.719 628.704,430.247 628.704,430.870 C628.704,431.909 628.289,432.741 627.458,433.368 C626.627,433.995 625.550,434.308 624.225,434.308 C623.294,434.308 622.470,434.143 621.754,433.814 C621.038,433.484 620.478,433.024 620.073,432.433 C619.668,431.843 619.466,431.203 619.466,430.516 C619.466,430.516 621.453,430.516 621.453,430.516 C621.489,431.182 621.756,431.710 622.254,432.100 C622.751,432.491 623.409,432.686 624.225,432.686 C624.977,432.686 625.580,432.534 626.035,432.229 C626.490,431.925 626.717,431.519 626.717,431.010 C626.717,430.473 626.515,430.056 626.110,429.759 C625.706,429.461 625.000,429.205 623.994,428.990 C622.988,428.776 622.189,428.518 621.598,428.217 C621.008,427.916 620.571,427.558 620.288,427.143 C620.005,426.728 619.864,426.233 619.864,425.660 C619.864,424.708 620.266,423.902 621.072,423.243 C621.878,422.585 622.907,422.255 624.160,422.255 C625.478,422.255 626.547,422.595 627.367,423.276 C628.187,423.956 628.597,424.826 628.597,425.886 C628.597,425.886 626.599,425.886 626.599,425.886 C626.599,425.342 626.368,424.873 625.906,424.479 C625.444,424.085 624.862,423.888 624.160,423.888 C623.437,423.888 622.871,424.046 622.463,424.361 C622.055,424.676 621.851,425.088 621.851,425.596 C621.851,426.076 622.041,426.438 622.420,426.681 C622.800,426.924 623.485,427.157 624.477,427.379 zM612.022,438.669 C611.184,438.669 610.364,438.490 609.562,438.132 C608.760,437.774 608.147,437.283 607.725,436.660 C607.725,436.660 608.756,435.468 608.756,435.468 C609.608,436.521 610.650,437.047 611.882,437.047 C612.849,437.047 613.603,436.775 614.143,436.231 C614.684,435.686 614.954,434.920 614.954,433.932 C614.954,433.932 614.954,432.933 614.954,432.933 C614.160,433.850 613.075,434.308 611.700,434.308 C610.339,434.308 609.238,433.760 608.396,432.664 C607.555,431.569 607.134,430.075 607.134,428.185 C607.134,426.373 607.553,424.932 608.391,423.861 C609.229,422.791 610.339,422.255 611.721,422.255 C613.139,422.255 614.245,422.756 615.040,423.759 C615.040,423.759 615.137,422.470 615.137,422.470 L616.952,422.470 C616.952,422.470 616.952,433.814 616.952,433.814 C616.952,435.318 616.507,436.503 615.615,437.369 C614.723,438.236 613.526,438.669 612.022,438.669 zM614.954,425.607 C614.346,424.497 613.433,423.942 612.215,423.942 C611.248,423.942 610.493,424.318 609.949,425.070 C609.404,425.822 609.132,426.935 609.132,428.410 C609.132,429.721 609.401,430.751 609.938,431.499 C610.475,432.247 611.227,432.621 612.194,432.621 C613.447,432.621 614.367,432.052 614.954,430.913 C614.954,430.913 614.954,425.607 614.954,425.607 zM605.007,424.178 C603.704,424.178 602.819,424.733 602.354,425.843 C602.354,425.843 602.354,434.093 602.354,434.093 L600.367,434.093 L600.367,422.470 L602.300,422.470 C602.300,422.470 602.332,423.813 602.332,423.813 C602.984,422.774 603.908,422.255 605.104,422.255 C605.491,422.255 605.784,422.305 605.985,422.405 C605.985,422.405 605.985,424.253 605.985,424.253 C605.684,424.203 605.358,424.178 605.007,424.178 zM595.296,432.868 C594.372,433.828 593.269,434.308 591.988,434.308 C590.842,434.308 589.902,433.984 589.168,433.336 C588.434,432.688 588.067,431.866 588.067,430.870 C588.067,429.660 588.527,428.720 589.447,428.051 C590.367,427.381 591.662,427.046 593.330,427.046 C593.330,427.046 595.264,427.046 595.264,427.046 C595.264,427.046 595.264,426.133 595.264,426.133 C595.264,425.438 595.056,424.885 594.641,424.473 C594.226,424.062 593.613,423.856 592.804,423.856 C592.095,423.856 591.501,424.035 591.021,424.393 C590.541,424.751 590.301,425.184 590.301,425.693 C590.301,425.693 588.303,425.693 588.303,425.693 C588.303,425.113 588.509,424.552 588.921,424.011 C589.332,423.471 589.891,423.043 590.597,422.728 C591.302,422.413 592.077,422.255 592.922,422.255 C594.261,422.255 595.310,422.590 596.070,423.260 C596.829,423.929 597.223,424.851 597.251,426.026 C597.251,426.026 597.251,431.375 597.251,431.375 C597.251,432.442 597.387,433.291 597.660,433.921 C597.660,433.921 597.660,434.093 597.660,434.093 C597.660,434.093 595.576,434.093 595.576,434.093 C595.461,433.864 595.368,433.456 595.296,432.868 zM595.264,428.453 C595.264,428.453 593.706,428.453 593.706,428.453 C591.271,428.453 590.054,429.166 590.054,430.591 C590.054,431.214 590.262,431.701 590.677,432.052 C591.092,432.403 591.626,432.578 592.278,432.578 C592.901,432.578 593.492,432.417 594.050,432.095 C594.609,431.773 595.013,431.354 595.264,430.838 C595.264,430.838 595.264,428.453 595.264,428.453 zM581.385,434.093 L578.560,425.284 L575.810,434.093 L574.199,434.093 L570.826,422.470 L572.802,422.470 L575.090,431.171 L577.797,422.470 L579.398,422.470 L582.159,431.354 L584.393,422.470 L586.380,422.470 L582.996,434.093 L581.385,434.093 zM568.011,434.093 L563.961,428.711 L562.715,430.011 L562.715,434.093 L560.728,434.093 L560.728,417.593 L562.715,417.593 L562.715,427.572 L563.779,426.294 L567.399,422.470 L569.816,422.470 L565.293,427.325 L570.342,434.093 L568.011,434.093 zM557.731,426.536 L556.399,427.546 L554.401,424.452 L552.467,427.470 L551.124,426.493 L553.284,423.528 L550.039,422.562 L550.534,420.942 L553.778,422.144 L553.681,418.452 L555.325,418.452 L555.217,422.198 L558.408,421.017 L558.902,422.648 L555.604,423.625 L557.731,426.536 zM548.256,426.536 L546.924,427.546 L544.926,424.452 L542.993,427.470 L541.650,426.493 L543.809,423.528 L540.565,422.562 L541.059,420.942 L544.303,422.144 L544.206,418.452 L545.850,418.452 L545.743,422.198 L548.933,421.017 L549.427,422.648 L546.129,423.625 L548.256,426.536 zM670.524,434.093 L668.536,434.093 L668.536,422.470 L670.524,422.470 L670.524,434.093 zM732.667,434.093 L730.680,434.093 L730.680,422.470 L732.667,422.470 L732.667,434.093 z" fill="#FFFFFF" /><path id="Color-Fill-1" d="M437.381,606.646 L437.381,654.525 L172.934,654.525 L172.934,606.646 L437.381,606.646 z" fill="#F4C30A" /><path id="Rectangle_1_" d="M437.381,546.000 L437.381,593.879 L172.934,593.879 L172.934,546.000 L437.381,546.000 z" fill="#07AF73" /><path id="Rectangle_1_2" d="M437.381,485.354 L437.381,533.232 L172.934,533.232 L172.934,485.354 L437.381,485.354 z" fill="#4474CD" /><path id="style" d="M225.529,631.851 C225.557,632.997 225.892,633.922 226.533,634.628 C227.174,635.333 227.989,635.686 228.977,635.686 C229.679,635.686 230.273,635.543 230.760,635.256 C231.247,634.970 231.673,634.590 232.038,634.117 C232.038,634.117 233.252,635.063 233.252,635.063 C232.278,636.560 230.817,637.308 228.869,637.308 C227.294,637.308 226.012,636.791 225.024,635.756 C224.035,634.721 223.541,633.337 223.541,631.604 C223.541,631.604 223.541,631.239 223.541,631.239 C223.541,630.086 223.762,629.056 224.202,628.150 C224.642,627.244 225.258,626.535 226.050,626.023 C226.841,625.511 227.699,625.255 228.622,625.255 C230.133,625.255 231.308,625.753 232.146,626.748 C232.984,627.744 233.403,629.169 233.403,631.024 C233.403,631.024 233.403,631.851 233.403,631.851 C233.403,631.851 225.529,631.851 225.529,631.851 zM231.415,630.068 C231.358,629.058 231.086,628.276 230.599,627.720 C230.112,627.166 229.453,626.888 228.622,626.888 C227.820,626.888 227.147,627.180 226.603,627.763 C226.059,628.347 225.722,629.165 225.593,630.218 C225.593,630.218 231.415,630.218 231.415,630.218 C231.415,630.218 231.415,630.068 231.415,630.068 zM218.879,620.593 L220.867,620.593 L220.867,637.093 L218.879,637.093 L218.879,620.593 zM208.814,641.787 C208.814,641.787 208.438,641.755 208.438,641.755 L207.697,641.615 L207.697,640.004 C207.697,640.004 208.234,640.047 208.234,640.047 C208.907,640.047 209.431,639.911 209.807,639.639 C210.183,639.367 210.493,638.869 210.737,638.146 C210.737,638.146 211.177,636.964 211.177,636.964 L207.031,625.470 L209.201,625.470 L212.101,634.182 L214.808,625.470 L216.935,625.470 C216.935,625.470 212.262,638.887 212.262,638.887 C211.539,640.821 210.389,641.787 208.814,641.787 zM202.497,636.502 C202.046,635.965 201.821,635.202 201.821,634.214 C201.821,634.214 201.821,627.006 201.821,627.006 L199.704,627.006 L199.704,625.470 L201.821,625.470 L201.821,622.655 L203.808,622.655 L203.808,625.470 L205.978,625.470 L205.978,627.006 L203.808,627.006 C203.808,627.006 203.808,634.223 203.808,634.223 C203.808,634.689 203.905,635.039 204.098,635.272 C204.291,635.505 204.621,635.621 205.086,635.621 C205.315,635.621 205.630,635.578 206.032,635.492 C206.032,635.492 206.032,637.094 206.032,637.094 C205.509,637.237 205.000,637.308 204.506,637.308 C203.618,637.308 202.949,637.039 202.497,636.502 zM194.296,630.379 C195.288,630.601 196.091,630.866 196.707,631.174 C197.323,631.482 197.780,631.853 198.077,632.286 C198.374,632.719 198.523,633.247 198.523,633.870 C198.523,634.909 198.107,635.741 197.277,636.368 C196.446,636.995 195.368,637.308 194.043,637.308 C193.112,637.308 192.289,637.143 191.573,636.814 C190.856,636.484 190.296,636.024 189.891,635.433 C189.487,634.843 189.285,634.203 189.285,633.516 C189.285,633.516 191.272,633.516 191.272,633.516 C191.308,634.182 191.574,634.710 192.072,635.100 C192.570,635.491 193.227,635.686 194.043,635.686 C194.795,635.686 195.398,635.534 195.853,635.229 C196.308,634.925 196.535,634.519 196.535,634.010 C196.535,633.473 196.333,633.056 195.929,632.759 C195.524,632.461 194.818,632.205 193.812,631.990 C192.806,631.776 192.008,631.518 191.417,631.217 C190.826,630.916 190.389,630.558 190.106,630.143 C189.823,629.728 189.682,629.233 189.682,628.660 C189.682,627.708 190.085,626.902 190.890,626.243 C191.696,625.585 192.726,625.255 193.979,625.255 C195.296,625.255 196.365,625.595 197.185,626.276 C198.005,626.956 198.415,627.826 198.415,628.886 C198.415,628.886 196.417,628.886 196.417,628.886 C196.417,628.342 196.186,627.873 195.724,627.479 C195.263,627.085 194.681,626.888 193.979,626.888 C193.255,626.888 192.690,627.046 192.282,627.361 C191.873,627.676 191.669,628.088 191.669,628.596 C191.669,629.076 191.859,629.438 192.239,629.681 C192.618,629.924 193.304,630.157 194.296,630.379 z" fill="#FFFFFF" /><path id="config" d="M246.954,580.369 C246.062,581.236 244.865,581.669 243.361,581.669 C242.523,581.669 241.703,581.490 240.901,581.132 C240.099,580.774 239.486,580.283 239.064,579.660 C239.064,579.660 240.095,578.468 240.095,578.468 C240.947,579.521 241.989,580.047 243.221,580.047 C244.188,580.047 244.941,579.775 245.482,579.231 C246.023,578.686 246.293,577.920 246.293,576.932 C246.293,576.932 246.293,575.933 246.293,575.933 C245.498,576.850 244.413,577.308 243.038,577.308 C241.678,577.308 240.577,576.760 239.735,575.664 C238.894,574.569 238.473,573.075 238.473,571.185 C238.473,569.373 238.892,567.932 239.730,566.861 C240.568,565.791 241.678,565.255 243.060,565.255 C244.478,565.255 245.584,565.756 246.379,566.759 C246.379,566.759 246.476,565.470 246.476,565.470 L248.291,565.470 C248.291,565.470 248.291,576.814 248.291,576.814 C248.291,578.318 247.846,579.503 246.954,580.369 zM246.293,568.607 C245.685,567.497 244.771,566.942 243.554,566.942 C242.587,566.942 241.832,567.318 241.287,568.070 C240.743,568.822 240.471,569.935 240.471,571.410 C240.471,572.721 240.740,573.751 241.277,574.499 C241.814,575.247 242.566,575.621 243.533,575.621 C244.786,575.621 245.706,575.052 246.293,573.913 C246.293,573.913 246.293,568.607 246.293,568.607 zM234.788,563.515 C234.402,563.515 234.110,563.407 233.913,563.193 C233.716,562.978 233.618,562.709 233.618,562.387 C233.618,562.065 233.716,561.793 233.913,561.571 C234.110,561.349 234.402,561.238 234.788,561.238 C235.175,561.238 235.469,561.349 235.669,561.571 C235.870,561.793 235.970,562.065 235.970,562.387 C235.970,562.709 235.870,562.978 235.669,563.193 C235.469,563.407 235.175,563.515 234.788,563.515 zM230.953,562.054 C230.309,562.054 229.811,562.243 229.460,562.620 C229.109,562.997 228.934,563.538 228.934,564.241 C228.934,564.241 228.934,565.470 228.934,565.470 L231.415,565.470 L231.415,567.006 L228.934,567.006 L228.934,577.093 L226.947,577.093 L226.947,567.006 L225.110,567.006 L225.110,565.470 L226.947,565.470 C226.947,565.470 226.947,564.278 226.947,564.278 C226.947,563.031 227.280,562.068 227.946,561.388 C228.612,560.708 229.553,560.367 230.771,560.367 C231.229,560.367 231.684,560.428 232.135,560.549 C232.135,560.549 232.028,562.151 232.028,562.151 C231.691,562.086 231.333,562.054 230.953,562.054 zM220.985,569.402 C220.977,568.564 220.786,567.944 220.410,567.543 C220.034,567.142 219.449,566.942 218.654,566.942 C218.009,566.942 217.443,567.114 216.956,567.457 C216.469,567.801 216.090,568.252 215.818,568.811 C215.818,568.811 215.818,577.093 215.818,577.093 L213.830,577.093 L213.830,565.470 L215.710,565.470 C215.710,565.470 215.775,566.931 215.775,566.931 C216.663,565.814 217.823,565.255 219.255,565.255 C221.711,565.255 222.951,566.641 222.972,569.412 C222.972,569.412 222.972,577.093 222.972,577.093 L220.985,577.093 C220.985,577.093 220.985,569.402 220.985,569.402 zM208.830,576.556 C208.024,577.057 207.099,577.308 206.053,577.308 C204.477,577.308 203.201,576.760 202.223,575.664 C201.246,574.569 200.757,573.118 200.757,571.314 C200.757,571.314 200.757,571.174 200.757,571.174 C200.757,570.035 200.981,569.011 201.429,568.102 C201.876,567.192 202.499,566.490 203.298,565.996 C204.096,565.502 205.007,565.255 206.032,565.255 C207.614,565.255 208.894,565.803 209.872,566.899 C210.849,567.994 211.338,569.452 211.338,571.271 C211.338,571.271 211.338,571.410 211.338,571.410 C211.338,572.542 211.122,573.557 210.688,574.456 C210.255,575.355 209.636,576.055 208.830,576.556 zM208.443,568.075 C207.838,567.284 207.034,566.888 206.032,566.888 C205.050,566.888 204.259,567.278 203.658,568.059 C203.056,568.839 202.755,569.957 202.755,571.410 C202.755,572.699 203.054,573.734 203.652,574.515 C204.250,575.296 205.050,575.686 206.053,575.686 C207.063,575.686 207.865,575.290 208.459,574.499 C209.054,573.708 209.351,572.599 209.351,571.174 C209.351,569.899 209.048,568.866 208.443,568.075 zM192.067,574.601 C192.618,575.324 193.406,575.686 194.430,575.686 C195.139,575.686 195.758,575.471 196.288,575.041 C196.818,574.612 197.112,574.074 197.169,573.430 C197.169,573.430 199.049,573.430 199.049,573.430 C199.013,574.096 198.784,574.730 198.362,575.331 C197.939,575.933 197.375,576.413 196.670,576.771 C195.964,577.129 195.218,577.308 194.430,577.308 C192.847,577.308 191.589,576.780 190.654,575.723 C189.720,574.667 189.252,573.222 189.252,571.389 C189.252,571.389 189.252,571.056 189.252,571.056 C189.252,569.924 189.460,568.918 189.875,568.037 C190.291,567.156 190.887,566.473 191.664,565.986 C192.441,565.499 193.359,565.255 194.419,565.255 C195.723,565.255 196.806,565.646 197.669,566.426 C198.532,567.207 198.992,568.220 199.049,569.466 C199.049,569.466 197.169,569.466 197.169,569.466 C197.112,568.714 196.827,568.096 196.315,567.613 C195.803,567.130 195.171,566.888 194.419,566.888 C193.410,566.888 192.627,567.251 192.072,567.978 C191.517,568.705 191.240,569.756 191.240,571.131 C191.240,571.131 191.240,571.507 191.240,571.507 C191.240,572.846 191.515,573.878 192.067,574.601 zM235.766,577.093 L233.779,577.093 L233.779,565.470 L235.766,565.470 L235.766,577.093 z" fill="#FFFFFF" /><path id="data" d="M228.504,516.093 C228.390,515.864 228.296,515.456 228.225,514.868 C227.301,515.828 226.198,516.308 224.916,516.308 C223.770,516.308 222.831,515.984 222.097,515.336 C221.362,514.688 220.995,513.866 220.995,512.870 C220.995,511.660 221.456,510.720 222.376,510.051 C223.296,509.381 224.590,509.046 226.259,509.046 C226.259,509.046 228.193,509.046 228.193,509.046 C228.193,509.046 228.193,508.133 228.193,508.133 C228.193,507.438 227.985,506.885 227.570,506.473 C227.154,506.062 226.542,505.856 225.733,505.856 C225.024,505.856 224.429,506.035 223.950,506.393 C223.470,506.751 223.230,507.184 223.230,507.693 C223.230,507.693 221.232,507.693 221.232,507.693 C221.232,507.113 221.438,506.552 221.849,506.011 C222.261,505.471 222.820,505.043 223.525,504.728 C224.231,504.413 225.006,504.255 225.851,504.255 C227.190,504.255 228.239,504.590 228.998,505.260 C229.757,505.929 230.151,506.851 230.180,508.026 C230.180,508.026 230.180,513.375 230.180,513.375 C230.180,514.442 230.316,515.291 230.588,515.921 C230.588,515.921 230.588,516.093 230.588,516.093 C230.588,516.093 228.504,516.093 228.504,516.093 zM228.193,510.453 C228.193,510.453 226.635,510.453 226.635,510.453 C224.200,510.453 222.983,511.166 222.983,512.591 C222.983,513.214 223.190,513.701 223.606,514.052 C224.021,514.403 224.555,514.578 225.206,514.578 C225.829,514.578 226.420,514.417 226.979,514.095 C227.537,513.773 227.942,513.354 228.193,512.838 C228.193,512.838 228.193,510.453 228.193,510.453 zM215.528,515.502 C215.076,514.965 214.851,514.202 214.851,513.214 C214.851,513.214 214.851,506.006 214.851,506.006 L212.735,506.006 L212.735,504.470 L214.851,504.470 L214.851,501.656 L216.838,501.656 L216.838,504.470 L219.008,504.470 L219.008,506.006 L216.838,506.006 C216.838,506.006 216.838,513.223 216.838,513.223 C216.838,513.689 216.935,514.039 217.128,514.272 C217.322,514.505 217.651,514.621 218.117,514.621 C218.346,514.621 218.661,514.578 219.062,514.492 C219.062,514.492 219.062,516.094 219.062,516.094 C218.539,516.237 218.031,516.308 217.536,516.308 C216.648,516.308 215.979,516.039 215.528,515.502 zM209.072,514.868 C208.148,515.828 207.045,516.308 205.763,516.308 C204.617,516.308 203.677,515.984 202.943,515.336 C202.209,514.688 201.842,513.866 201.842,512.870 C201.842,511.660 202.302,510.720 203.222,510.051 C204.143,509.381 205.437,509.046 207.106,509.046 C207.106,509.046 209.039,509.046 209.039,509.046 C209.039,509.046 209.039,508.133 209.039,508.133 C209.039,507.438 208.832,506.885 208.416,506.473 C208.001,506.062 207.389,505.856 206.579,505.856 C205.870,505.856 205.276,506.035 204.796,506.393 C204.316,506.751 204.077,507.184 204.077,507.693 C204.077,507.693 202.078,507.693 202.078,507.693 C202.078,507.113 202.284,506.552 202.696,506.011 C203.108,505.471 203.666,505.043 204.372,504.728 C205.077,504.413 205.852,504.255 206.698,504.255 C208.037,504.255 209.086,504.590 209.845,505.260 C210.604,505.929 210.998,506.851 211.027,508.026 C211.027,508.026 211.027,513.375 211.027,513.375 C211.027,514.442 211.163,515.291 211.435,515.921 C211.435,515.921 211.435,516.093 211.435,516.093 C211.435,516.093 209.351,516.093 209.351,516.093 C209.236,515.864 209.143,515.456 209.072,514.868 zM209.039,510.453 C209.039,510.453 207.482,510.453 207.482,510.453 C205.047,510.453 203.829,511.166 203.829,512.591 C203.829,513.214 204.037,513.701 204.452,514.052 C204.868,514.403 205.401,514.578 206.053,514.578 C206.676,514.578 207.267,514.417 207.826,514.095 C208.384,513.773 208.789,513.354 209.039,512.838 C209.039,512.838 209.039,510.453 209.039,510.453 zM197.169,514.847 C196.374,515.821 195.268,516.308 193.850,516.308 C192.503,516.308 191.406,515.756 190.557,514.654 C189.709,513.551 189.285,512.111 189.285,510.335 C189.285,510.335 189.285,510.185 189.285,510.185 C189.285,508.402 189.707,506.968 190.552,505.883 C191.397,504.798 192.503,504.255 193.871,504.255 C195.232,504.255 196.310,504.721 197.105,505.652 C197.105,505.652 197.105,499.593 197.105,499.593 L199.092,499.593 L199.092,516.093 L197.266,516.093 C197.266,516.093 197.169,514.847 197.169,514.847 zM197.105,507.585 C196.510,506.489 195.597,505.942 194.366,505.942 C193.392,505.942 192.632,506.318 192.088,507.070 C191.544,507.822 191.272,508.935 191.272,510.410 C191.272,511.728 191.544,512.759 192.088,513.504 C192.632,514.249 193.384,514.621 194.344,514.621 C195.604,514.621 196.525,514.056 197.105,512.924 C197.105,512.924 197.105,507.585 197.105,507.585 z" fill="#FFFFFF" /><path id="*args-(chart-opt" d="M394.509,423.393 C394.297,423.615 393.988,423.726 393.579,423.726 C393.171,423.726 392.865,423.615 392.661,423.393 C392.457,423.171 392.355,422.895 392.355,422.566 C392.355,422.222 392.457,421.936 392.661,421.706 C392.865,421.477 393.171,421.363 393.579,421.363 C393.988,421.363 394.297,421.477 394.509,421.706 C394.720,421.936 394.826,422.222 394.826,422.566 C394.826,422.895 394.720,423.171 394.509,423.393 zM393.569,430.848 C393.977,430.848 394.287,430.963 394.498,431.192 C394.709,431.421 394.815,431.707 394.815,432.051 C394.815,432.380 394.709,432.656 394.498,432.878 C394.287,433.100 393.977,433.211 393.569,433.211 C393.160,433.211 392.854,433.100 392.650,432.878 C392.446,432.656 392.344,432.380 392.344,432.051 C392.344,431.707 392.446,431.421 392.650,431.192 C392.854,430.963 393.160,430.848 393.569,430.848 zM386.796,435.499 C385.933,436.738 385.029,437.619 384.083,438.142 C384.083,438.142 383.664,436.928 383.664,436.928 C384.767,436.083 385.653,434.770 386.323,432.991 C386.993,431.211 387.335,429.237 387.349,427.067 C387.349,427.067 387.349,426.723 387.349,426.723 C387.349,425.219 387.191,423.821 386.876,422.528 C386.561,421.235 386.123,420.077 385.560,419.053 C384.998,418.029 384.366,417.230 383.664,416.657 C383.664,416.657 384.083,415.444 384.083,415.444 C385.029,415.966 385.929,416.840 386.785,418.065 C387.641,419.289 388.282,420.639 388.708,422.114 C389.134,423.590 389.347,425.169 389.347,426.852 C389.347,428.449 389.138,429.980 388.719,431.444 C388.300,432.909 387.659,434.260 386.796,435.499 zM377.944,426.379 C378.936,426.601 379.740,426.866 380.356,427.174 C380.972,427.482 381.428,427.853 381.725,428.286 C382.023,428.719 382.171,429.247 382.171,429.870 C382.171,430.909 381.756,431.741 380.925,432.368 C380.094,432.995 379.017,433.308 377.692,433.308 C376.761,433.308 375.937,433.143 375.221,432.814 C374.505,432.484 373.944,432.024 373.540,431.433 C373.135,430.843 372.933,430.203 372.933,429.516 C372.933,429.516 374.920,429.516 374.920,429.516 C374.956,430.182 375.223,430.710 375.721,431.100 C376.218,431.491 376.875,431.686 377.692,431.686 C378.444,431.686 379.047,431.534 379.502,431.229 C379.956,430.925 380.184,430.519 380.184,430.010 C380.184,429.473 379.981,429.056 379.577,428.759 C379.172,428.461 378.467,428.205 377.461,427.990 C376.455,427.776 375.656,427.518 375.065,427.217 C374.474,426.916 374.038,426.558 373.755,426.143 C373.472,425.728 373.330,425.233 373.330,424.660 C373.330,423.708 373.733,422.902 374.539,422.243 C375.345,421.585 376.374,421.255 377.627,421.255 C378.945,421.255 380.014,421.595 380.834,422.276 C381.654,422.956 382.064,423.826 382.064,424.886 C382.064,424.886 380.066,424.886 380.066,424.886 C380.066,424.342 379.835,423.873 379.373,423.479 C378.911,423.085 378.329,422.888 377.627,422.888 C376.904,422.888 376.338,423.046 375.930,423.361 C375.522,423.676 375.318,424.088 375.318,424.596 C375.318,425.076 375.507,425.438 375.887,425.681 C376.267,425.924 376.952,426.157 377.944,426.379 zM368.432,425.402 C368.425,424.564 368.233,423.944 367.857,423.543 C367.481,423.142 366.896,422.942 366.101,422.942 C365.456,422.942 364.891,423.114 364.404,423.457 C363.917,423.801 363.537,424.252 363.265,424.811 C363.265,424.811 363.265,433.093 363.265,433.093 L361.278,433.093 L361.278,421.470 L363.158,421.470 C363.158,421.470 363.222,422.931 363.222,422.931 C364.110,421.814 365.270,421.255 366.702,421.255 C369.159,421.255 370.398,422.641 370.419,425.412 C370.419,425.412 370.419,433.093 370.419,433.093 L368.432,433.093 C368.432,433.093 368.432,425.402 368.432,425.402 zM356.277,432.556 C355.472,433.057 354.546,433.308 353.500,433.308 C351.925,433.308 350.648,432.760 349.671,431.664 C348.693,430.569 348.204,429.118 348.204,427.314 C348.204,427.314 348.204,427.174 348.204,427.174 C348.204,426.035 348.428,425.011 348.876,424.102 C349.323,423.192 349.946,422.490 350.745,421.996 C351.543,421.502 352.455,421.255 353.479,421.255 C355.061,421.255 356.342,421.803 357.319,422.899 C358.297,423.994 358.785,425.452 358.785,427.271 C358.785,427.271 358.785,427.410 358.785,427.410 C358.785,428.542 358.569,429.557 358.136,430.456 C357.702,431.355 357.083,432.055 356.277,432.556 zM355.890,424.075 C355.285,423.284 354.481,422.888 353.479,422.888 C352.498,422.888 351.706,423.278 351.105,424.059 C350.503,424.839 350.202,425.957 350.202,427.410 C350.202,428.699 350.501,429.734 351.099,430.515 C351.697,431.296 352.498,431.686 353.500,431.686 C354.510,431.686 355.312,431.290 355.907,430.499 C356.501,429.708 356.798,428.599 356.798,427.174 C356.798,425.899 356.496,424.866 355.890,424.075 zM344.574,419.515 C344.187,419.515 343.895,419.407 343.698,419.193 C343.501,418.978 343.403,418.709 343.403,418.387 C343.403,418.065 343.501,417.793 343.698,417.571 C343.895,417.349 344.187,417.238 344.574,417.238 C344.960,417.238 345.254,417.349 345.454,417.571 C345.655,417.793 345.755,418.065 345.755,418.387 C345.755,418.709 345.655,418.978 345.454,419.193 C345.254,419.407 344.960,419.515 344.574,419.515 zM339.600,433.308 C338.712,433.308 338.042,433.039 337.591,432.502 C337.140,431.965 336.914,431.202 336.914,430.214 C336.914,430.214 336.914,423.006 336.914,423.006 L334.798,423.006 L334.798,421.470 L336.914,421.470 L336.914,418.655 L338.902,418.655 L338.902,421.470 L341.072,421.470 L341.072,423.006 L338.902,423.006 C338.902,423.006 338.902,430.223 338.902,430.223 C338.902,430.689 338.998,431.039 339.192,431.272 C339.385,431.505 339.714,431.621 340.180,431.621 C340.409,431.621 340.724,431.578 341.125,431.492 C341.125,431.492 341.125,433.094 341.125,433.094 C340.602,433.237 340.094,433.308 339.600,433.308 zM329.180,433.308 C327.769,433.308 326.659,432.860 325.850,431.965 C325.850,431.965 325.850,437.562 325.850,437.562 L323.863,437.562 L323.863,421.470 L325.678,421.470 C325.678,421.470 325.775,422.759 325.775,422.759 C326.584,421.756 327.708,421.255 329.148,421.255 C330.544,421.255 331.649,421.781 332.462,422.834 C333.274,423.887 333.681,425.352 333.681,427.228 C333.681,427.228 333.681,427.410 333.681,427.410 C333.681,429.179 333.276,430.605 332.467,431.686 C331.658,432.767 330.562,433.308 329.180,433.308 zM330.856,424.080 C330.297,423.321 329.531,422.942 328.557,422.942 C327.354,422.942 326.452,423.475 325.850,424.542 C325.850,424.542 325.850,430.096 325.850,430.096 C326.444,431.156 327.354,431.686 328.578,431.686 C329.531,431.686 330.288,431.308 330.850,430.552 C331.413,429.797 331.694,428.674 331.694,427.185 C331.694,425.874 331.414,424.839 330.856,424.080 zM318.862,432.556 C318.056,433.057 317.131,433.308 316.085,433.308 C314.510,433.308 313.233,432.760 312.256,431.664 C311.278,430.569 310.789,429.118 310.789,427.314 C310.789,427.314 310.789,427.174 310.789,427.174 C310.789,426.035 311.013,425.011 311.461,424.102 C311.908,423.192 312.531,422.490 313.330,421.996 C314.128,421.502 315.040,421.255 316.064,421.255 C317.646,421.255 318.927,421.803 319.904,422.899 C320.882,423.994 321.370,425.452 321.370,427.271 C321.370,427.271 321.370,427.410 321.370,427.410 C321.370,428.542 321.154,429.557 320.721,430.456 C320.287,431.355 319.668,432.055 318.862,432.556 zM318.475,424.075 C317.870,423.284 317.066,422.888 316.064,422.888 C315.083,422.888 314.291,423.278 313.690,424.059 C313.088,424.839 312.787,425.957 312.787,427.410 C312.787,428.699 313.086,429.734 313.684,430.515 C314.282,431.296 315.083,431.686 316.085,431.686 C317.095,431.686 317.897,431.290 318.492,430.499 C319.086,429.708 319.383,428.599 319.383,427.174 C319.383,425.899 319.081,424.866 318.475,424.075 zM302.077,433.308 C301.189,433.308 300.520,433.039 300.069,432.502 C299.618,431.965 299.392,431.202 299.392,430.214 C299.392,430.214 299.392,423.006 299.392,423.006 L297.276,423.006 L297.276,421.470 L299.392,421.470 L299.392,418.655 L301.379,418.655 L301.379,421.470 L303.549,421.470 L303.549,423.006 L301.379,423.006 C301.379,423.006 301.379,430.223 301.379,430.223 C301.379,430.689 301.476,431.039 301.669,431.272 C301.863,431.505 302.192,431.621 302.658,431.621 C302.887,431.621 303.202,431.578 303.603,431.492 C303.603,431.492 303.603,433.094 303.603,433.094 C303.080,433.237 302.572,433.308 302.077,433.308 zM295.342,423.178 C294.039,423.178 293.154,423.733 292.689,424.843 C292.689,424.843 292.689,433.093 292.689,433.093 L290.701,433.093 L290.701,421.470 L292.635,421.470 C292.635,421.470 292.667,422.813 292.667,422.813 C293.319,421.774 294.243,421.255 295.439,421.255 C295.826,421.255 296.119,421.305 296.320,421.405 C296.320,421.405 296.320,423.253 296.320,423.253 C296.019,423.203 295.693,423.178 295.342,423.178 zM285.631,431.868 C284.707,432.828 283.604,433.308 282.323,433.308 C281.177,433.308 280.237,432.984 279.503,432.336 C278.769,431.688 278.402,430.866 278.402,429.870 C278.402,428.660 278.862,427.720 279.782,427.051 C280.702,426.381 281.997,426.046 283.665,426.046 C283.665,426.046 285.599,426.046 285.599,426.046 C285.599,426.046 285.599,425.133 285.599,425.133 C285.599,424.438 285.391,423.885 284.976,423.473 C284.560,423.062 283.948,422.856 283.139,422.856 C282.430,422.856 281.836,423.035 281.356,423.393 C280.876,423.751 280.636,424.184 280.636,424.693 C280.636,424.693 278.638,424.693 278.638,424.693 C278.638,424.113 278.844,423.552 279.256,423.011 C279.667,422.471 280.226,422.043 280.931,421.728 C281.637,421.413 282.412,421.255 283.257,421.255 C284.596,421.255 285.645,421.590 286.405,422.260 C287.164,422.929 287.558,423.851 287.586,425.026 C287.586,425.026 287.586,430.375 287.586,430.375 C287.586,431.442 287.722,432.291 287.994,432.921 C287.994,432.921 287.994,433.093 287.994,433.093 C287.994,433.093 285.910,433.093 285.910,433.093 C285.796,432.864 285.703,432.456 285.631,431.868 zM285.599,427.453 C285.599,427.453 284.041,427.453 284.041,427.453 C281.606,427.453 280.389,428.166 280.389,429.591 C280.389,430.214 280.597,430.701 281.012,431.052 C281.427,431.403 281.961,431.578 282.613,431.578 C283.236,431.578 283.827,431.417 284.385,431.095 C284.944,430.773 285.348,430.354 285.599,429.838 C285.599,429.838 285.599,427.453 285.599,427.453 zM273.772,425.402 C273.765,424.564 273.573,423.944 273.197,423.543 C272.821,423.142 272.236,422.942 271.441,422.942 C270.796,422.942 270.230,423.114 269.743,423.457 C269.256,423.801 268.877,424.252 268.605,424.811 C268.605,424.811 268.605,433.093 268.605,433.093 L266.618,433.093 L266.618,416.593 L268.605,416.593 C268.605,416.593 268.605,422.877 268.605,422.877 C269.486,421.796 270.631,421.255 272.042,421.255 C274.499,421.255 275.738,422.641 275.759,425.412 C275.759,425.412 275.759,433.093 275.759,433.093 L273.772,433.093 C273.772,433.093 273.772,425.402 273.772,425.402 zM257.401,430.601 C257.952,431.324 258.740,431.686 259.764,431.686 C260.473,431.686 261.092,431.471 261.622,431.041 C262.152,430.612 262.446,430.074 262.503,429.430 C262.503,429.430 264.383,429.430 264.383,429.430 C264.347,430.096 264.118,430.730 263.696,431.331 C263.273,431.933 262.709,432.413 262.004,432.771 C261.298,433.129 260.552,433.308 259.764,433.308 C258.181,433.308 256.923,432.780 255.988,431.723 C255.054,430.667 254.586,429.222 254.586,427.389 C254.586,427.389 254.586,427.056 254.586,427.056 C254.586,425.924 254.794,424.918 255.209,424.037 C255.625,423.156 256.221,422.473 256.998,421.986 C257.775,421.499 258.693,421.255 259.753,421.255 C261.057,421.255 262.140,421.646 263.003,422.426 C263.866,423.207 264.326,424.220 264.383,425.466 C264.383,425.466 262.503,425.466 262.503,425.466 C262.446,424.714 262.161,424.096 261.649,423.613 C261.137,423.130 260.505,422.888 259.753,422.888 C258.743,422.888 257.961,423.251 257.406,423.978 C256.851,424.705 256.574,425.756 256.574,427.131 C256.574,427.131 256.574,427.507 256.574,427.507 C256.574,428.846 256.849,429.878 257.401,430.601 zM253.179,436.928 C253.179,436.928 252.771,438.142 252.771,438.142 C251.818,437.612 250.909,436.724 250.042,435.478 C248.352,433.043 247.507,430.132 247.507,426.744 C247.507,425.126 247.724,423.572 248.157,422.082 C248.590,420.593 249.237,419.239 250.096,418.022 C250.955,416.804 251.847,415.945 252.771,415.444 C252.771,415.444 253.179,416.754 253.179,416.754 C252.133,417.556 251.276,418.781 250.606,420.428 C249.937,422.075 249.570,423.919 249.505,425.960 C249.505,425.960 249.494,426.873 249.494,426.873 C249.494,429.638 249.999,432.037 251.009,434.071 C251.618,435.288 252.341,436.240 253.179,436.928 zM235.320,426.379 C236.312,426.601 237.116,426.866 237.732,427.174 C238.348,427.482 238.804,427.853 239.101,428.286 C239.398,428.719 239.547,429.247 239.547,429.870 C239.547,430.909 239.132,431.741 238.301,432.368 C237.470,432.995 236.393,433.308 235.068,433.308 C234.137,433.308 233.313,433.143 232.597,432.814 C231.881,432.484 231.320,432.024 230.916,431.433 C230.511,430.843 230.309,430.203 230.309,429.516 C230.309,429.516 232.296,429.516 232.296,429.516 C232.332,430.182 232.599,430.710 233.097,431.100 C233.594,431.491 234.251,431.686 235.068,431.686 C235.820,431.686 236.423,431.534 236.878,431.229 C237.332,430.925 237.560,430.519 237.560,430.010 C237.560,429.473 237.357,429.056 236.953,428.759 C236.548,428.461 235.843,428.205 234.837,427.990 C233.831,427.776 233.032,427.518 232.441,427.217 C231.850,426.916 231.414,426.558 231.131,426.143 C230.848,425.728 230.706,425.233 230.706,424.660 C230.706,423.708 231.109,422.902 231.915,422.243 C232.721,421.585 233.750,421.255 235.003,421.255 C236.321,421.255 237.390,421.595 238.210,422.276 C239.030,422.956 239.440,423.826 239.440,424.886 C239.440,424.886 237.442,424.886 237.442,424.886 C237.442,424.342 237.211,423.873 236.749,423.479 C236.287,423.085 235.705,422.888 235.003,422.888 C234.280,422.888 233.714,423.046 233.306,423.361 C232.898,423.676 232.694,424.088 232.694,424.596 C232.694,425.076 232.883,425.438 233.263,425.681 C233.643,425.924 234.328,426.157 235.320,426.379 zM222.865,437.669 C222.027,437.669 221.207,437.490 220.405,437.132 C219.602,436.774 218.990,436.283 218.568,435.660 C218.568,435.660 219.599,434.468 219.599,434.468 C220.451,435.521 221.493,436.047 222.725,436.047 C223.692,436.047 224.445,435.775 224.986,435.231 C225.527,434.686 225.797,433.920 225.797,432.932 C225.797,432.932 225.797,431.933 225.797,431.933 C225.002,432.850 223.917,433.308 222.542,433.308 C221.182,433.308 220.081,432.760 219.239,431.664 C218.398,430.569 217.977,429.075 217.977,427.185 C217.977,425.373 218.396,423.932 219.234,422.861 C220.072,421.791 221.182,421.255 222.564,421.255 C223.982,421.255 225.088,421.756 225.883,422.759 C225.883,422.759 225.980,421.470 225.980,421.470 L227.795,421.470 C227.795,421.470 227.795,432.814 227.795,432.814 C227.795,434.318 227.349,435.503 226.458,436.369 C225.566,437.236 224.368,437.669 222.865,437.669 zM225.797,424.607 C225.188,423.497 224.275,422.942 223.058,422.942 C222.091,422.942 221.336,423.318 220.791,424.070 C220.247,424.822 219.975,425.935 219.975,427.410 C219.975,428.721 220.243,429.751 220.781,430.499 C221.318,431.247 222.070,431.621 223.036,431.621 C224.290,431.621 225.210,431.052 225.797,429.913 C225.797,429.913 225.797,424.607 225.797,424.607 zM215.850,423.178 C214.546,423.178 213.662,423.733 213.197,424.843 C213.197,424.843 213.197,433.093 213.197,433.093 L211.209,433.093 L211.209,421.470 L213.143,421.470 C213.143,421.470 213.175,422.813 213.175,422.813 C213.827,421.774 214.751,421.255 215.947,421.255 C216.333,421.255 216.627,421.305 216.827,421.405 C216.827,421.405 216.827,423.253 216.827,423.253 C216.527,423.203 216.201,423.178 215.850,423.178 zM206.139,431.868 C205.215,432.828 204.112,433.308 202.830,433.308 C201.685,433.308 200.745,432.984 200.011,432.336 C199.276,431.688 198.910,430.866 198.910,429.870 C198.910,428.660 199.370,427.720 200.290,427.051 C201.210,426.381 202.504,426.046 204.173,426.046 C204.173,426.046 206.107,426.046 206.107,426.046 C206.107,426.046 206.107,425.133 206.107,425.133 C206.107,424.438 205.899,423.885 205.484,423.473 C205.068,423.062 204.456,422.856 203.647,422.856 C202.938,422.856 202.343,423.035 201.864,423.393 C201.384,423.751 201.144,424.184 201.144,424.693 C201.144,424.693 199.146,424.693 199.146,424.693 C199.146,424.113 199.352,423.552 199.764,423.011 C200.175,422.471 200.734,422.043 201.439,421.728 C202.145,421.413 202.920,421.255 203.765,421.255 C205.104,421.255 206.153,421.590 206.912,422.260 C207.671,422.929 208.065,423.851 208.094,425.026 C208.094,425.026 208.094,430.375 208.094,430.375 C208.094,431.442 208.230,432.291 208.502,432.921 C208.502,432.921 208.502,433.093 208.502,433.093 C208.502,433.093 206.418,433.093 206.418,433.093 C206.304,432.864 206.211,432.456 206.139,431.868 zM206.107,427.453 C206.107,427.453 204.549,427.453 204.549,427.453 C202.114,427.453 200.897,428.166 200.897,429.591 C200.897,430.214 201.104,430.701 201.520,431.052 C201.935,431.403 202.469,431.578 203.120,431.578 C203.743,431.578 204.334,431.417 204.893,431.095 C205.452,430.773 205.856,430.354 206.107,429.838 C206.107,429.838 206.107,427.453 206.107,427.453 zM196.256,425.536 L194.924,426.546 L192.926,423.452 L190.993,426.470 L189.650,425.493 L191.809,422.528 L188.565,421.562 L189.059,419.942 L192.303,421.144 L192.206,417.452 L193.850,417.452 L193.743,421.198 L196.933,420.017 L197.427,421.648 L194.129,422.625 L196.256,425.536 zM345.551,433.093 L343.564,433.093 L343.564,421.470 L345.551,421.470 L345.551,433.093 z" fill="#5F5E5E" /><path id="Color-Fill-2" d="M399.000,152.000 C399.000,152.000 398.993,153.000 399.000,153.000 C399.007,153.000 245.007,152.993 245.000,153.000 C244.993,153.007 245.008,155.986 245.010,156.000 C245.012,156.014 399.010,156.000 399.000,156.000 C398.982,156.333 398.982,156.667 399.000,157.000 C391.000,165.000 391.000,165.000 391.000,165.000 L397.000,165.000 L407.000,155.000 L407.000,154.000 L397.000,144.000 L391.000,144.000 L399.000,152.000 z" fill="#C995CD" /><path id="Color-Fill-3" d="M774.000,151.000 C774.000,151.000 773.993,152.000 774.000,152.000 C774.007,152.000 620.007,151.993 620.000,152.000 C619.993,152.007 620.008,154.986 620.010,155.000 C620.012,155.014 774.010,155.000 774.000,155.000 C773.982,155.333 773.982,155.667 774.000,156.000 C766.000,164.000 766.000,164.000 766.000,164.000 L772.000,164.000 L782.000,154.000 L782.000,153.000 L772.000,143.000 L766.000,143.000 L774.000,151.000 z" fill="#C995CD" /><path id="_2nd_state-copy-" d="M387.840,201.444 C387.421,202.909 386.780,204.260 385.917,205.499 C385.054,206.738 384.150,207.619 383.204,208.142 C383.204,208.142 382.785,206.928 382.785,206.928 C383.888,206.083 384.774,204.770 385.444,202.991 C386.114,201.211 386.456,199.237 386.470,197.067 C386.470,197.067 386.470,196.723 386.470,196.723 C386.470,195.219 386.312,193.821 385.997,192.528 C385.682,191.235 385.244,190.077 384.681,189.053 C384.119,188.029 383.487,187.230 382.785,186.657 C382.785,186.657 383.204,185.444 383.204,185.444 C384.150,185.966 385.050,186.840 385.906,188.065 C386.762,189.289 387.403,190.639 387.829,192.114 C388.255,193.590 388.468,195.169 388.468,196.852 C388.468,198.449 388.259,199.980 387.840,201.444 zM379.359,203.211 C378.951,203.211 378.644,203.100 378.440,202.878 C378.236,202.656 378.134,202.380 378.134,202.051 C378.134,201.707 378.236,201.421 378.440,201.192 C378.644,200.963 378.951,200.848 379.359,200.848 C379.767,200.848 380.077,200.963 380.288,201.192 C380.499,201.421 380.605,201.707 380.605,202.051 C380.605,202.380 380.499,202.656 380.288,202.878 C380.077,203.100 379.767,203.211 379.359,203.211 zM373.569,203.211 C373.160,203.211 372.854,203.100 372.650,202.878 C372.446,202.656 372.344,202.380 372.344,202.051 C372.344,201.707 372.446,201.421 372.650,201.192 C372.854,200.963 373.160,200.848 373.569,200.848 C373.977,200.848 374.287,200.963 374.498,201.192 C374.709,201.421 374.815,201.707 374.815,202.051 C374.815,202.380 374.709,202.656 374.498,202.878 C374.287,203.100 373.977,203.211 373.569,203.211 zM367.779,203.211 C367.370,203.211 367.064,203.100 366.860,202.878 C366.656,202.656 366.554,202.380 366.554,202.051 C366.554,201.707 366.656,201.421 366.860,201.192 C367.064,200.963 367.370,200.848 367.779,200.848 C368.187,200.848 368.497,200.963 368.708,201.192 C368.919,201.421 369.025,201.707 369.025,202.051 C369.025,202.380 368.919,202.656 368.708,202.878 C368.497,203.100 368.187,203.211 367.779,203.211 zM362.128,206.208 C362.128,206.208 361.000,205.435 361.000,205.435 C361.673,204.497 362.024,203.530 362.053,202.534 C362.053,202.534 362.053,200.740 362.053,200.740 L363.997,200.740 C363.997,200.740 363.997,202.298 363.997,202.298 C363.997,203.021 363.820,203.745 363.466,204.468 C363.111,205.191 362.665,205.771 362.128,206.208 zM357.670,203.211 C357.262,203.211 356.956,203.100 356.752,202.878 C356.548,202.656 356.446,202.380 356.446,202.051 C356.446,201.707 356.548,201.421 356.752,201.192 C356.956,200.963 357.262,200.848 357.670,200.848 C358.078,200.848 358.388,200.963 358.599,201.192 C358.811,201.421 358.916,201.707 358.916,202.051 C358.916,202.380 358.811,202.656 358.599,202.878 C358.388,203.100 358.078,203.211 357.670,203.211 zM351.880,203.211 C351.472,203.211 351.166,203.100 350.962,202.878 C350.758,202.656 350.656,202.380 350.656,202.051 C350.656,201.707 350.758,201.421 350.962,201.192 C351.166,200.963 351.472,200.848 351.880,200.848 C352.288,200.848 352.598,200.963 352.809,201.192 C353.021,201.421 353.126,201.707 353.126,202.051 C353.126,202.380 353.021,202.656 352.809,202.878 C352.598,203.100 352.288,203.211 351.880,203.211 zM346.090,203.211 C345.682,203.211 345.376,203.100 345.172,202.878 C344.968,202.656 344.866,202.380 344.866,202.051 C344.866,201.707 344.968,201.421 345.172,201.192 C345.376,200.963 345.682,200.848 346.090,200.848 C346.498,200.848 346.808,200.963 347.019,201.192 C347.231,201.421 347.336,201.707 347.336,202.051 C347.336,202.380 347.231,202.656 347.019,202.878 C346.808,203.100 346.498,203.211 346.090,203.211 zM342.900,206.928 C342.900,206.928 342.492,208.142 342.492,208.142 C341.539,207.612 340.629,206.724 339.763,205.478 C338.073,203.043 337.228,200.132 337.228,196.744 C337.228,195.126 337.444,193.572 337.878,192.082 C338.311,190.593 338.957,189.239 339.817,188.022 C340.676,186.804 341.568,185.945 342.492,185.444 C342.492,185.444 342.900,186.754 342.900,186.754 C341.854,187.556 340.997,188.781 340.327,190.428 C339.657,192.075 339.290,193.919 339.226,195.960 C339.226,195.960 339.215,196.873 339.215,196.873 C339.215,199.638 339.720,202.037 340.730,204.071 C341.338,205.288 342.062,206.240 342.900,206.928 zM328.135,200.628 C328.775,201.333 329.590,201.686 330.578,201.686 C331.280,201.686 331.875,201.543 332.362,201.256 C332.849,200.970 333.275,200.590 333.640,200.117 C333.640,200.117 334.854,201.063 334.854,201.063 C333.880,202.560 332.419,203.308 330.471,203.308 C328.895,203.308 327.614,202.791 326.625,201.756 C325.637,200.721 325.143,199.337 325.143,197.604 C325.143,197.604 325.143,197.239 325.143,197.239 C325.143,196.086 325.363,195.056 325.804,194.150 C326.244,193.244 326.860,192.535 327.651,192.023 C328.442,191.511 329.300,191.255 330.224,191.255 C331.735,191.255 332.910,191.753 333.747,192.748 C334.585,193.744 335.004,195.169 335.004,197.024 C335.004,197.024 335.004,197.851 335.004,197.851 C335.004,197.851 327.130,197.851 327.130,197.851 C327.159,198.997 327.494,199.922 328.135,200.628 zM333.017,196.218 C333.017,196.218 333.017,196.068 333.017,196.068 C332.960,195.058 332.687,194.276 332.201,193.720 C331.713,193.166 331.055,192.888 330.224,192.888 C329.422,192.888 328.749,193.180 328.204,193.763 C327.660,194.347 327.324,195.165 327.195,196.218 C327.195,196.218 333.017,196.218 333.017,196.218 zM321.856,203.308 C320.968,203.308 320.298,203.039 319.847,202.502 C319.396,201.965 319.170,201.202 319.170,200.214 C319.170,200.214 319.170,193.006 319.170,193.006 L317.054,193.006 L317.054,191.470 L319.170,191.470 L319.170,188.655 L321.158,188.655 L321.158,191.470 L323.327,191.470 L323.327,193.006 L321.158,193.006 C321.158,193.006 321.158,200.223 321.158,200.223 C321.158,200.689 321.254,201.039 321.448,201.272 C321.641,201.505 321.970,201.621 322.436,201.621 C322.665,201.621 322.980,201.578 323.381,201.492 C323.381,201.492 323.381,203.094 323.381,203.094 C322.858,203.237 322.350,203.308 321.856,203.308 zM313.391,201.868 C312.467,202.828 311.364,203.308 310.082,203.308 C308.936,203.308 307.997,202.984 307.263,202.336 C306.528,201.688 306.161,200.866 306.161,199.870 C306.161,198.660 306.622,197.720 307.542,197.051 C308.462,196.381 309.756,196.046 311.425,196.046 C311.425,196.046 313.359,196.046 313.359,196.046 C313.359,196.046 313.359,195.133 313.359,195.133 C313.359,194.438 313.151,193.885 312.736,193.473 C312.320,193.062 311.708,192.856 310.899,192.856 C310.190,192.856 309.595,193.035 309.116,193.393 C308.636,193.751 308.396,194.184 308.396,194.693 C308.396,194.693 306.398,194.693 306.398,194.693 C306.398,194.113 306.604,193.552 307.015,193.011 C307.427,192.471 307.986,192.043 308.691,191.728 C309.397,191.413 310.172,191.255 311.017,191.255 C312.356,191.255 313.405,191.590 314.164,192.260 C314.923,192.929 315.317,193.851 315.346,195.026 C315.346,195.026 315.346,200.375 315.346,200.375 C315.346,201.442 315.482,202.291 315.754,202.921 C315.754,202.921 315.754,203.093 315.754,203.093 C315.754,203.093 313.670,203.093 313.670,203.093 C313.556,202.864 313.462,202.456 313.391,201.868 zM313.359,197.453 C313.359,197.453 311.801,197.453 311.801,197.453 C309.366,197.453 308.149,198.166 308.149,199.591 C308.149,200.214 308.356,200.701 308.772,201.052 C309.187,201.403 309.721,201.578 310.372,201.578 C310.995,201.578 311.586,201.417 312.145,201.095 C312.703,200.773 313.108,200.354 313.359,199.838 C313.359,199.838 313.359,197.453 313.359,197.453 zM301.510,195.423 C301.510,194.592 301.320,193.971 300.941,193.559 C300.561,193.148 299.924,192.942 299.029,192.942 C298.291,192.942 297.679,193.162 297.192,193.602 C296.705,194.043 296.422,194.635 296.343,195.380 C296.343,195.380 296.343,203.093 296.343,203.093 L294.345,203.093 C294.345,203.093 294.345,195.477 294.345,195.477 C294.345,193.787 293.518,192.942 291.864,192.942 C290.560,192.942 289.669,193.497 289.189,194.607 C289.189,194.607 289.189,203.093 289.189,203.093 L287.202,203.093 L287.202,191.470 L289.081,191.470 C289.081,191.470 289.135,192.759 289.135,192.759 C289.987,191.756 291.137,191.255 292.583,191.255 C294.209,191.255 295.315,191.878 295.903,193.124 C296.289,192.566 296.792,192.114 297.412,191.771 C298.031,191.427 298.764,191.255 299.609,191.255 C302.158,191.255 303.454,192.605 303.497,195.305 C303.497,195.305 303.497,203.093 303.497,203.093 L301.510,203.093 C301.510,203.093 301.510,195.423 301.510,195.423 zM283.055,189.515 C282.668,189.515 282.376,189.407 282.180,189.193 C281.982,188.978 281.884,188.709 281.884,188.387 C281.884,188.065 281.982,187.793 282.180,187.571 C282.376,187.349 282.668,187.238 283.055,187.238 C283.442,187.238 283.735,187.349 283.936,187.571 C284.136,187.793 284.237,188.065 284.237,188.387 C284.237,188.709 284.136,188.978 283.936,189.193 C283.735,189.407 283.442,189.515 283.055,189.515 zM276.889,195.402 C276.882,194.564 276.690,193.944 276.314,193.543 C275.938,193.142 275.353,192.942 274.558,192.942 C273.913,192.942 273.348,193.114 272.861,193.457 C272.374,193.801 271.994,194.252 271.722,194.811 C271.722,194.811 271.722,203.093 271.722,203.093 L269.735,203.093 L269.735,191.470 L271.615,191.470 C271.615,191.470 271.679,192.931 271.679,192.931 C272.567,191.814 273.727,191.255 275.160,191.255 C277.616,191.255 278.855,192.641 278.876,195.412 C278.876,195.412 278.876,203.093 278.876,203.093 L276.889,203.093 C276.889,203.093 276.889,195.402 276.889,195.402 zM264.664,201.868 C263.741,202.828 262.638,203.308 261.356,203.308 C260.210,203.308 259.270,202.984 258.536,202.336 C257.802,201.688 257.435,200.866 257.435,199.870 C257.435,198.660 257.895,197.720 258.815,197.051 C259.735,196.381 261.030,196.046 262.699,196.046 C262.699,196.046 264.632,196.046 264.632,196.046 C264.632,196.046 264.632,195.133 264.632,195.133 C264.632,194.438 264.424,193.885 264.009,193.473 C263.594,193.062 262.981,192.856 262.172,192.856 C261.463,192.856 260.869,193.035 260.389,193.393 C259.909,193.751 259.669,194.184 259.669,194.693 C259.669,194.693 257.671,194.693 257.671,194.693 C257.671,194.113 257.877,193.552 258.289,193.011 C258.701,192.471 259.259,192.043 259.965,191.728 C260.670,191.413 261.445,191.255 262.290,191.255 C263.629,191.255 264.679,191.590 265.438,192.260 C266.197,192.929 266.591,193.851 266.619,195.026 C266.619,195.026 266.619,200.375 266.619,200.375 C266.619,201.442 266.755,202.291 267.028,202.921 C267.028,202.921 267.028,203.093 267.028,203.093 C267.028,203.093 264.944,203.093 264.944,203.093 C264.829,202.864 264.736,202.456 264.664,201.868 zM264.632,197.453 C264.632,197.453 263.075,197.453 263.075,197.453 C260.640,197.453 259.422,198.166 259.422,199.591 C259.422,200.214 259.630,200.701 260.045,201.052 C260.461,201.403 260.994,201.578 261.646,201.578 C262.269,201.578 262.860,201.417 263.418,201.095 C263.977,200.773 264.381,200.354 264.632,199.838 C264.632,199.838 264.632,197.453 264.632,197.453 zM284.033,203.093 L282.045,203.093 L282.045,191.470 L284.033,191.470 L284.033,203.093 z" fill="#5F5E5E" /><path id="_2nd_state-copy" d="M759.840,201.444 C759.421,202.909 758.780,204.260 757.917,205.499 C757.054,206.738 756.150,207.619 755.204,208.142 C755.204,208.142 754.785,206.928 754.785,206.928 C755.888,206.083 756.774,204.770 757.444,202.991 C758.114,201.211 758.456,199.237 758.470,197.067 C758.470,197.067 758.470,196.723 758.470,196.723 C758.470,195.219 758.312,193.821 757.997,192.528 C757.682,191.235 757.244,190.077 756.681,189.053 C756.119,188.029 755.487,187.230 754.785,186.657 C754.785,186.657 755.204,185.444 755.204,185.444 C756.150,185.966 757.050,186.840 757.906,188.065 C758.762,189.289 759.403,190.639 759.829,192.114 C760.255,193.590 760.468,195.169 760.468,196.852 C760.468,198.449 760.259,199.980 759.840,201.444 zM751.359,203.211 C750.951,203.211 750.644,203.100 750.440,202.878 C750.236,202.656 750.134,202.380 750.134,202.051 C750.134,201.707 750.236,201.421 750.440,201.192 C750.644,200.963 750.951,200.848 751.359,200.848 C751.767,200.848 752.077,200.963 752.288,201.192 C752.499,201.421 752.605,201.707 752.605,202.051 C752.605,202.380 752.499,202.656 752.288,202.878 C752.077,203.100 751.767,203.211 751.359,203.211 zM745.569,203.211 C745.160,203.211 744.854,203.100 744.650,202.878 C744.446,202.656 744.344,202.380 744.344,202.051 C744.344,201.707 744.446,201.421 744.650,201.192 C744.854,200.963 745.160,200.848 745.569,200.848 C745.977,200.848 746.287,200.963 746.498,201.192 C746.709,201.421 746.815,201.707 746.815,202.051 C746.815,202.380 746.709,202.656 746.498,202.878 C746.287,203.100 745.977,203.211 745.569,203.211 zM739.779,203.211 C739.370,203.211 739.064,203.100 738.860,202.878 C738.656,202.656 738.554,202.380 738.554,202.051 C738.554,201.707 738.656,201.421 738.860,201.192 C739.064,200.963 739.370,200.848 739.779,200.848 C740.187,200.848 740.497,200.963 740.708,201.192 C740.919,201.421 741.025,201.707 741.025,202.051 C741.025,202.380 740.919,202.656 740.708,202.878 C740.497,203.100 740.187,203.211 739.779,203.211 zM734.128,206.208 C734.128,206.208 733.000,205.435 733.000,205.435 C733.673,204.497 734.024,203.530 734.053,202.534 C734.053,202.534 734.053,200.740 734.053,200.740 L735.997,200.740 C735.997,200.740 735.997,202.298 735.997,202.298 C735.997,203.021 735.820,203.745 735.466,204.468 C735.111,205.191 734.665,205.771 734.128,206.208 zM729.670,203.211 C729.262,203.211 728.956,203.100 728.752,202.878 C728.548,202.656 728.446,202.380 728.446,202.051 C728.446,201.707 728.548,201.421 728.752,201.192 C728.956,200.963 729.262,200.848 729.670,200.848 C730.078,200.848 730.388,200.963 730.599,201.192 C730.811,201.421 730.916,201.707 730.916,202.051 C730.916,202.380 730.811,202.656 730.599,202.878 C730.388,203.100 730.078,203.211 729.670,203.211 zM723.880,203.211 C723.472,203.211 723.166,203.100 722.962,202.878 C722.758,202.656 722.656,202.380 722.656,202.051 C722.656,201.707 722.758,201.421 722.962,201.192 C723.166,200.963 723.472,200.848 723.880,200.848 C724.288,200.848 724.598,200.963 724.809,201.192 C725.021,201.421 725.126,201.707 725.126,202.051 C725.126,202.380 725.021,202.656 724.809,202.878 C724.598,203.100 724.288,203.211 723.880,203.211 zM718.090,203.211 C717.682,203.211 717.376,203.100 717.172,202.878 C716.968,202.656 716.866,202.380 716.866,202.051 C716.866,201.707 716.968,201.421 717.172,201.192 C717.376,200.963 717.682,200.848 718.090,200.848 C718.498,200.848 718.808,200.963 719.019,201.192 C719.231,201.421 719.336,201.707 719.336,202.051 C719.336,202.380 719.231,202.656 719.019,202.878 C718.808,203.100 718.498,203.211 718.090,203.211 zM714.900,206.928 C714.900,206.928 714.492,208.142 714.492,208.142 C713.539,207.612 712.629,206.724 711.763,205.478 C710.073,203.043 709.228,200.132 709.228,196.744 C709.228,195.126 709.444,193.572 709.878,192.082 C710.311,190.593 710.957,189.239 711.817,188.022 C712.676,186.804 713.568,185.945 714.492,185.444 C714.492,185.444 714.900,186.754 714.900,186.754 C713.854,187.556 712.997,188.781 712.327,190.428 C711.657,192.075 711.290,193.919 711.226,195.960 C711.226,195.960 711.215,196.873 711.215,196.873 C711.215,199.638 711.720,202.037 712.730,204.071 C713.338,205.288 714.062,206.240 714.900,206.928 zM700.135,200.628 C700.775,201.333 701.590,201.686 702.578,201.686 C703.280,201.686 703.875,201.543 704.362,201.256 C704.849,200.970 705.275,200.590 705.640,200.117 C705.640,200.117 706.854,201.063 706.854,201.063 C705.880,202.560 704.419,203.308 702.471,203.308 C700.895,203.308 699.614,202.791 698.625,201.756 C697.637,200.721 697.143,199.337 697.143,197.604 C697.143,197.604 697.143,197.239 697.143,197.239 C697.143,196.086 697.363,195.056 697.804,194.150 C698.244,193.244 698.860,192.535 699.651,192.023 C700.442,191.511 701.300,191.255 702.224,191.255 C703.735,191.255 704.910,191.753 705.747,192.748 C706.585,193.744 707.004,195.169 707.004,197.024 C707.004,197.024 707.004,197.851 707.004,197.851 C707.004,197.851 699.130,197.851 699.130,197.851 C699.159,198.997 699.494,199.922 700.135,200.628 zM705.017,196.218 C705.017,196.218 705.017,196.068 705.017,196.068 C704.960,195.058 704.687,194.276 704.201,193.720 C703.713,193.166 703.055,192.888 702.224,192.888 C701.422,192.888 700.749,193.180 700.204,193.763 C699.660,194.347 699.324,195.165 699.195,196.218 C699.195,196.218 705.017,196.218 705.017,196.218 zM693.856,203.308 C692.968,203.308 692.298,203.039 691.847,202.502 C691.396,201.965 691.170,201.202 691.170,200.214 C691.170,200.214 691.170,193.006 691.170,193.006 L689.054,193.006 L689.054,191.470 L691.170,191.470 L691.170,188.655 L693.158,188.655 L693.158,191.470 L695.327,191.470 L695.327,193.006 L693.158,193.006 C693.158,193.006 693.158,200.223 693.158,200.223 C693.158,200.689 693.254,201.039 693.448,201.272 C693.641,201.505 693.970,201.621 694.436,201.621 C694.665,201.621 694.980,201.578 695.381,201.492 C695.381,201.492 695.381,203.094 695.381,203.094 C694.858,203.237 694.350,203.308 693.856,203.308 zM685.391,201.868 C684.467,202.828 683.364,203.308 682.082,203.308 C680.936,203.308 679.997,202.984 679.263,202.336 C678.528,201.688 678.161,200.866 678.161,199.870 C678.161,198.660 678.622,197.720 679.542,197.051 C680.462,196.381 681.756,196.046 683.425,196.046 C683.425,196.046 685.359,196.046 685.359,196.046 C685.359,196.046 685.359,195.133 685.359,195.133 C685.359,194.438 685.151,193.885 684.736,193.473 C684.320,193.062 683.708,192.856 682.899,192.856 C682.190,192.856 681.595,193.035 681.116,193.393 C680.636,193.751 680.396,194.184 680.396,194.693 C680.396,194.693 678.398,194.693 678.398,194.693 C678.398,194.113 678.604,193.552 679.015,193.011 C679.427,192.471 679.986,192.043 680.691,191.728 C681.397,191.413 682.172,191.255 683.017,191.255 C684.356,191.255 685.405,191.590 686.164,192.260 C686.923,192.929 687.317,193.851 687.346,195.026 C687.346,195.026 687.346,200.375 687.346,200.375 C687.346,201.442 687.482,202.291 687.754,202.921 C687.754,202.921 687.754,203.093 687.754,203.093 C687.754,203.093 685.670,203.093 685.670,203.093 C685.556,202.864 685.462,202.456 685.391,201.868 zM685.359,197.453 C685.359,197.453 683.801,197.453 683.801,197.453 C681.366,197.453 680.149,198.166 680.149,199.591 C680.149,200.214 680.356,200.701 680.772,201.052 C681.187,201.403 681.721,201.578 682.372,201.578 C682.995,201.578 683.586,201.417 684.145,201.095 C684.703,200.773 685.108,200.354 685.359,199.838 C685.359,199.838 685.359,197.453 685.359,197.453 zM673.510,195.423 C673.510,194.592 673.320,193.971 672.941,193.559 C672.561,193.148 671.924,192.942 671.029,192.942 C670.291,192.942 669.679,193.162 669.192,193.602 C668.705,194.043 668.422,194.635 668.343,195.380 C668.343,195.380 668.343,203.093 668.343,203.093 L666.345,203.093 C666.345,203.093 666.345,195.477 666.345,195.477 C666.345,193.787 665.518,192.942 663.864,192.942 C662.560,192.942 661.669,193.497 661.189,194.607 C661.189,194.607 661.189,203.093 661.189,203.093 L659.202,203.093 L659.202,191.470 L661.081,191.470 C661.081,191.470 661.135,192.759 661.135,192.759 C661.987,191.756 663.137,191.255 664.583,191.255 C666.209,191.255 667.315,191.878 667.903,193.124 C668.289,192.566 668.792,192.114 669.412,191.771 C670.031,191.427 670.764,191.255 671.609,191.255 C674.158,191.255 675.454,192.605 675.497,195.305 C675.497,195.305 675.497,203.093 675.497,203.093 L673.510,203.093 C673.510,203.093 673.510,195.423 673.510,195.423 zM655.055,189.515 C654.668,189.515 654.376,189.407 654.180,189.193 C653.982,188.978 653.884,188.709 653.884,188.387 C653.884,188.065 653.982,187.793 654.180,187.571 C654.376,187.349 654.668,187.238 655.055,187.238 C655.442,187.238 655.735,187.349 655.936,187.571 C656.136,187.793 656.237,188.065 656.237,188.387 C656.237,188.709 656.136,188.978 655.936,189.193 C655.735,189.407 655.442,189.515 655.055,189.515 zM648.889,195.402 C648.882,194.564 648.690,193.944 648.314,193.543 C647.938,193.142 647.353,192.942 646.558,192.942 C645.913,192.942 645.348,193.114 644.861,193.457 C644.374,193.801 643.994,194.252 643.722,194.811 C643.722,194.811 643.722,203.093 643.722,203.093 L641.735,203.093 L641.735,191.470 L643.615,191.470 C643.615,191.470 643.679,192.931 643.679,192.931 C644.567,191.814 645.727,191.255 647.160,191.255 C649.616,191.255 650.855,192.641 650.876,195.412 C650.876,195.412 650.876,203.093 650.876,203.093 L648.889,203.093 C648.889,203.093 648.889,195.402 648.889,195.402 zM636.664,201.868 C635.741,202.828 634.638,203.308 633.356,203.308 C632.210,203.308 631.270,202.984 630.536,202.336 C629.802,201.688 629.435,200.866 629.435,199.870 C629.435,198.660 629.895,197.720 630.815,197.051 C631.735,196.381 633.030,196.046 634.699,196.046 C634.699,196.046 636.632,196.046 636.632,196.046 C636.632,196.046 636.632,195.133 636.632,195.133 C636.632,194.438 636.424,193.885 636.009,193.473 C635.594,193.062 634.981,192.856 634.172,192.856 C633.463,192.856 632.869,193.035 632.389,193.393 C631.909,193.751 631.669,194.184 631.669,194.693 C631.669,194.693 629.671,194.693 629.671,194.693 C629.671,194.113 629.877,193.552 630.289,193.011 C630.701,192.471 631.259,192.043 631.965,191.728 C632.670,191.413 633.445,191.255 634.290,191.255 C635.629,191.255 636.679,191.590 637.438,192.260 C638.197,192.929 638.591,193.851 638.619,195.026 C638.619,195.026 638.619,200.375 638.619,200.375 C638.619,201.442 638.755,202.291 639.028,202.921 C639.028,202.921 639.028,203.093 639.028,203.093 C639.028,203.093 636.944,203.093 636.944,203.093 C636.829,202.864 636.736,202.456 636.664,201.868 zM636.632,197.453 C636.632,197.453 635.075,197.453 635.075,197.453 C632.640,197.453 631.422,198.166 631.422,199.591 C631.422,200.214 631.630,200.701 632.045,201.052 C632.461,201.403 632.994,201.578 633.646,201.578 C634.269,201.578 634.860,201.417 635.418,201.095 C635.977,200.773 636.381,200.354 636.632,199.838 C636.632,199.838 636.632,197.453 636.632,197.453 zM656.033,203.093 L654.045,203.093 L654.045,191.470 L656.033,191.470 L656.033,203.093 z" fill="#5F5E5E" /><path id="_2nd_state" d="M916.280,77.851 C916.308,78.997 916.643,79.922 917.284,80.628 C917.925,81.333 918.740,81.686 919.728,81.686 C920.430,81.686 921.024,81.543 921.511,81.256 C921.998,80.970 922.424,80.590 922.789,80.117 C922.789,80.117 924.003,81.063 924.003,81.063 C923.029,82.560 921.568,83.308 919.620,83.308 C918.045,83.308 916.763,82.791 915.775,81.756 C914.786,80.721 914.292,79.337 914.292,77.604 C914.292,77.604 914.292,77.239 914.292,77.239 C914.292,76.086 914.513,75.056 914.953,74.150 C915.393,73.244 916.009,72.535 916.801,72.023 C917.592,71.511 918.450,71.255 919.373,71.255 C920.884,71.255 922.059,71.753 922.897,72.748 C923.735,73.744 924.154,75.169 924.154,77.024 C924.154,77.024 924.154,77.851 924.154,77.851 C924.154,77.851 916.280,77.851 916.280,77.851 zM922.166,76.068 C922.109,75.058 921.837,74.276 921.350,73.720 C920.863,73.166 920.204,72.888 919.373,72.888 C918.571,72.888 917.898,73.180 917.354,73.763 C916.810,74.347 916.473,75.165 916.344,76.218 C916.344,76.218 922.166,76.218 922.166,76.218 C922.166,76.218 922.166,76.068 922.166,76.068 zM911.005,83.308 C910.117,83.308 909.448,83.039 908.996,82.502 C908.545,81.965 908.320,81.202 908.320,80.214 C908.320,80.214 908.320,73.006 908.320,73.006 L906.203,73.006 L906.203,71.470 L908.320,71.470 L908.320,68.656 L910.307,68.656 L910.307,71.470 L912.477,71.470 L912.477,73.006 L910.307,73.006 C910.307,73.006 910.307,80.223 910.307,80.223 C910.307,80.689 910.404,81.039 910.597,81.272 C910.790,81.505 911.120,81.621 911.585,81.621 C911.814,81.621 912.129,81.578 912.531,81.492 C912.531,81.492 912.531,83.094 912.531,83.094 C912.008,83.237 911.499,83.308 911.005,83.308 zM902.540,81.868 C901.617,82.828 900.514,83.308 899.232,83.308 C898.086,83.308 897.146,82.984 896.412,82.336 C895.678,81.688 895.311,80.866 895.311,79.870 C895.311,78.660 895.771,77.720 896.691,77.051 C897.611,76.381 898.906,76.046 900.575,76.046 C900.575,76.046 902.508,76.046 902.508,76.046 C902.508,76.046 902.508,75.133 902.508,75.133 C902.508,74.438 902.300,73.885 901.885,73.473 C901.470,73.062 900.857,72.856 900.048,72.856 C899.339,72.856 898.745,73.035 898.265,73.393 C897.785,73.751 897.545,74.184 897.545,74.693 C897.545,74.693 895.547,74.693 895.547,74.693 C895.547,74.113 895.753,73.552 896.165,73.011 C896.577,72.471 897.135,72.043 897.841,71.728 C898.546,71.413 899.321,71.255 900.166,71.255 C901.505,71.255 902.555,71.590 903.314,72.260 C904.073,72.929 904.467,73.851 904.495,75.026 C904.495,75.026 904.495,80.375 904.495,80.375 C904.495,81.442 904.631,82.291 904.904,82.921 C904.904,82.921 904.904,83.093 904.904,83.093 C904.904,83.093 902.820,83.093 902.820,83.093 C902.705,82.864 902.612,82.456 902.540,81.868 zM902.508,77.453 C902.508,77.453 900.951,77.453 900.951,77.453 C898.516,77.453 897.298,78.166 897.298,79.591 C897.298,80.214 897.506,80.701 897.921,81.052 C898.336,81.403 898.870,81.578 899.522,81.578 C900.145,81.578 900.736,81.417 901.294,81.095 C901.853,80.773 902.257,80.354 902.508,79.838 C902.508,79.838 902.508,77.453 902.508,77.453 zM891.852,83.308 C890.964,83.308 890.294,83.039 889.843,82.502 C889.392,81.965 889.166,81.202 889.166,80.214 C889.166,80.214 889.166,73.006 889.166,73.006 L887.050,73.006 L887.050,71.470 L889.166,71.470 L889.166,68.656 L891.154,68.656 L891.154,71.470 L893.324,71.470 L893.324,73.006 L891.154,73.006 C891.154,73.006 891.154,80.223 891.154,80.223 C891.154,80.689 891.250,81.039 891.444,81.272 C891.637,81.505 891.966,81.621 892.432,81.621 C892.661,81.621 892.976,81.578 893.377,81.492 C893.377,81.492 893.377,83.094 893.377,83.094 C892.854,83.237 892.346,83.308 891.852,83.308 zM881.641,76.379 C882.633,76.601 883.437,76.866 884.053,77.174 C884.669,77.482 885.125,77.853 885.423,78.286 C885.720,78.719 885.868,79.247 885.868,79.870 C885.868,80.909 885.453,81.741 884.622,82.368 C883.792,82.995 882.714,83.308 881.389,83.308 C880.458,83.308 879.634,83.143 878.918,82.814 C878.202,82.484 877.642,82.024 877.237,81.433 C876.832,80.843 876.630,80.203 876.630,79.516 C876.630,79.516 878.618,79.516 878.618,79.516 C878.653,80.182 878.920,80.710 879.418,81.100 C879.915,81.491 880.573,81.686 881.389,81.686 C882.141,81.686 882.744,81.534 883.199,81.229 C883.654,80.925 883.881,80.519 883.881,80.010 C883.881,79.473 883.679,79.056 883.274,78.759 C882.870,78.461 882.164,78.205 881.158,77.990 C880.152,77.776 879.353,77.518 878.763,77.217 C878.172,76.916 877.735,76.558 877.452,76.143 C877.169,75.728 877.028,75.233 877.028,74.660 C877.028,73.708 877.431,72.902 878.236,72.243 C879.042,71.585 880.071,71.255 881.325,71.255 C882.642,71.255 883.711,71.595 884.531,72.276 C885.351,72.956 885.761,73.826 885.761,74.886 C885.761,74.886 883.763,74.886 883.763,74.886 C883.763,74.342 883.532,73.873 883.070,73.479 C882.608,73.085 882.026,72.888 881.325,72.888 C880.601,72.888 880.035,73.046 879.627,73.361 C879.219,73.676 879.015,74.088 879.015,74.596 C879.015,75.076 879.205,75.438 879.584,75.681 C879.964,75.924 880.649,76.157 881.641,76.379 zM866.661,81.847 C865.867,82.821 864.760,83.308 863.342,83.308 C861.996,83.308 860.898,82.756 860.050,81.654 C859.201,80.551 858.777,79.111 858.777,77.335 C858.777,77.335 858.777,77.185 858.777,77.185 C858.777,75.402 859.199,73.968 860.044,72.883 C860.889,71.798 861.996,71.255 863.364,71.255 C864.724,71.255 865.802,71.721 866.597,72.652 C866.597,72.652 866.597,66.593 866.597,66.593 L868.584,66.593 L868.584,83.093 L866.758,83.093 C866.758,83.093 866.661,81.847 866.661,81.847 zM866.597,74.585 C866.002,73.489 865.089,72.942 863.858,72.942 C862.884,72.942 862.125,73.318 861.580,74.070 C861.036,74.822 860.764,75.935 860.764,77.410 C860.764,78.728 861.036,79.759 861.580,80.504 C862.125,81.249 862.877,81.621 863.836,81.621 C865.097,81.621 866.017,81.056 866.597,79.924 C866.597,79.924 866.597,74.585 866.597,74.585 zM854.276,75.402 C854.269,74.564 854.077,73.944 853.701,73.543 C853.325,73.142 852.740,72.942 851.945,72.942 C851.300,72.942 850.734,73.114 850.247,73.457 C849.760,73.801 849.381,74.252 849.109,74.811 C849.109,74.811 849.109,83.093 849.109,83.093 L847.121,83.093 L847.121,71.470 L849.001,71.470 C849.001,71.470 849.066,72.931 849.066,72.931 C849.954,71.814 851.114,71.255 852.546,71.255 C855.002,71.255 856.242,72.641 856.263,75.412 C856.263,75.412 856.263,83.093 856.263,83.093 L854.276,83.093 C854.276,83.093 854.276,75.402 854.276,75.402 zM834.564,81.664 C834.564,81.664 839.978,75.649 839.978,75.649 C840.780,74.739 841.333,74.000 841.638,73.430 C841.942,72.861 842.094,72.272 842.094,71.663 C842.094,70.847 841.847,70.177 841.353,69.655 C840.859,69.132 840.200,68.870 839.376,68.870 C838.388,68.870 837.620,69.151 837.072,69.714 C836.524,70.276 836.250,71.058 836.250,72.061 C836.250,72.061 834.263,72.061 834.263,72.061 C834.263,70.621 834.727,69.458 835.654,68.570 C836.581,67.682 837.822,67.238 839.376,67.238 C840.830,67.238 841.979,67.619 842.825,68.382 C843.669,69.144 844.092,70.159 844.092,71.427 C844.092,72.967 843.111,74.800 841.149,76.927 C841.149,76.927 836.959,81.471 836.959,81.471 L844.812,81.471 L844.812,83.093 L834.564,83.093 L834.564,81.664 z" fill="#4474CD" /><path id="_1st_state" d="M534.263,77.851 C534.292,78.997 534.626,79.922 535.267,80.628 C535.908,81.333 536.723,81.686 537.711,81.686 C538.413,81.686 539.007,81.543 539.494,81.256 C539.981,80.970 540.408,80.590 540.773,80.117 C540.773,80.117 541.987,81.063 541.987,81.063 C541.013,82.560 539.552,83.308 537.604,83.308 C536.028,83.308 534.746,82.791 533.758,81.756 C532.770,80.721 532.276,79.337 532.276,77.604 C532.276,77.604 532.276,77.239 532.276,77.239 C532.276,76.086 532.496,75.056 532.936,74.150 C533.377,73.244 533.993,72.535 534.784,72.023 C535.575,71.511 536.433,71.255 537.357,71.255 C538.868,71.255 540.042,71.753 540.880,72.748 C541.718,73.744 542.137,75.169 542.137,77.024 C542.137,77.024 542.137,77.851 542.137,77.851 C542.137,77.851 534.263,77.851 534.263,77.851 zM540.150,76.068 C540.092,75.058 539.820,74.276 539.333,73.720 C538.846,73.166 538.187,72.888 537.357,72.888 C536.555,72.888 535.881,73.180 535.337,73.763 C534.793,74.347 534.456,75.165 534.327,76.218 C534.327,76.218 540.150,76.218 540.150,76.218 C540.150,76.218 540.150,76.068 540.150,76.068 zM526.980,82.502 C526.529,81.965 526.303,81.202 526.303,80.214 C526.303,80.214 526.303,73.006 526.303,73.006 L524.187,73.006 L524.187,71.470 L526.303,71.470 L526.303,68.656 L528.290,68.656 L528.290,71.470 L530.460,71.470 L530.460,73.006 L528.290,73.006 C528.290,73.006 528.290,80.223 528.290,80.223 C528.290,80.689 528.387,81.039 528.580,81.272 C528.774,81.505 529.103,81.621 529.569,81.621 C529.798,81.621 530.113,81.578 530.514,81.492 C530.514,81.492 530.514,83.094 530.514,83.094 C529.991,83.237 529.483,83.308 528.989,83.308 C528.101,83.308 527.431,83.039 526.980,82.502 zM520.524,81.868 C519.600,82.828 518.497,83.308 517.215,83.308 C516.069,83.308 515.129,82.984 514.395,82.336 C513.661,81.688 513.294,80.866 513.294,79.870 C513.294,78.660 513.754,77.720 514.675,77.051 C515.595,76.381 516.889,76.046 518.558,76.046 C518.558,76.046 520.492,76.046 520.492,76.046 C520.492,76.046 520.492,75.133 520.492,75.133 C520.492,74.438 520.284,73.885 519.868,73.473 C519.453,73.062 518.841,72.856 518.032,72.856 C517.323,72.856 516.728,73.035 516.248,73.393 C515.768,73.751 515.529,74.184 515.529,74.693 C515.529,74.693 513.531,74.693 513.531,74.693 C513.531,74.113 513.736,73.552 514.148,73.011 C514.560,72.471 515.119,72.043 515.824,71.728 C516.529,71.413 517.305,71.255 518.150,71.255 C519.489,71.255 520.538,71.590 521.297,72.260 C522.056,72.929 522.450,73.851 522.479,75.026 C522.479,75.026 522.479,80.375 522.479,80.375 C522.479,81.442 522.615,82.291 522.887,82.921 C522.887,82.921 522.887,83.093 522.887,83.093 C522.887,83.093 520.803,83.093 520.803,83.093 C520.688,82.864 520.595,82.456 520.524,81.868 zM520.492,77.453 C520.492,77.453 518.934,77.453 518.934,77.453 C516.499,77.453 515.282,78.166 515.282,79.591 C515.282,80.214 515.489,80.701 515.905,81.052 C516.320,81.403 516.853,81.578 517.505,81.578 C518.128,81.578 518.719,81.417 519.278,81.095 C519.836,80.773 520.241,80.354 520.492,79.838 C520.492,79.838 520.492,77.453 520.492,77.453 zM507.826,82.502 C507.375,81.965 507.150,81.202 507.150,80.214 C507.150,80.214 507.150,73.006 507.150,73.006 L505.034,73.006 L505.034,71.470 L507.150,71.470 L507.150,68.656 L509.137,68.656 L509.137,71.470 L511.307,71.470 L511.307,73.006 L509.137,73.006 C509.137,73.006 509.137,80.223 509.137,80.223 C509.137,80.689 509.234,81.039 509.427,81.272 C509.620,81.505 509.950,81.621 510.415,81.621 C510.644,81.621 510.960,81.578 511.361,81.492 C511.361,81.492 511.361,83.094 511.361,83.094 C510.838,83.237 510.329,83.308 509.835,83.308 C508.947,83.308 508.278,83.039 507.826,82.502 zM499.625,76.379 C500.617,76.601 501.420,76.866 502.036,77.174 C502.652,77.482 503.109,77.853 503.406,78.286 C503.703,78.719 503.852,79.247 503.852,79.870 C503.852,80.909 503.436,81.741 502.606,82.368 C501.775,82.995 500.697,83.308 499.372,83.308 C498.441,83.308 497.618,83.143 496.902,82.814 C496.185,82.484 495.625,82.024 495.221,81.433 C494.816,80.843 494.614,80.203 494.614,79.516 C494.614,79.516 496.601,79.516 496.601,79.516 C496.637,80.182 496.903,80.710 497.401,81.100 C497.899,81.491 498.556,81.686 499.372,81.686 C500.124,81.686 500.728,81.534 501.182,81.229 C501.637,80.925 501.865,80.519 501.865,80.010 C501.865,79.473 501.662,79.056 501.258,78.759 C500.853,78.461 500.147,78.205 499.141,77.990 C498.135,77.776 497.337,77.518 496.746,77.217 C496.155,76.916 495.718,76.558 495.435,76.143 C495.152,75.728 495.011,75.233 495.011,74.660 C495.011,73.708 495.414,72.902 496.220,72.243 C497.025,71.585 498.055,71.255 499.308,71.255 C500.626,71.255 501.694,71.595 502.514,72.276 C503.334,72.956 503.744,73.826 503.744,74.886 C503.744,74.886 501.746,74.886 501.746,74.886 C501.746,74.342 501.515,73.873 501.054,73.479 C500.592,73.085 500.010,72.888 499.308,72.888 C498.585,72.888 498.019,73.046 497.611,73.361 C497.202,73.676 496.998,74.088 496.998,74.596 C496.998,75.076 497.188,75.438 497.568,75.681 C497.947,75.924 498.633,76.157 499.625,76.379 zM483.850,82.502 C483.399,81.965 483.173,81.202 483.173,80.214 C483.173,80.214 483.173,73.006 483.173,73.006 L481.057,73.006 L481.057,71.470 L483.173,71.470 L483.173,68.656 L485.160,68.656 L485.160,71.470 L487.330,71.470 L487.330,73.006 L485.160,73.006 C485.160,73.006 485.160,80.223 485.160,80.223 C485.160,80.689 485.257,81.039 485.451,81.272 C485.644,81.505 485.973,81.621 486.439,81.621 C486.668,81.621 486.983,81.578 487.384,81.492 C487.384,81.492 487.384,83.094 487.384,83.094 C486.861,83.237 486.353,83.308 485.859,83.308 C484.971,83.308 484.301,83.039 483.850,82.502 zM475.648,76.379 C476.640,76.601 477.444,76.866 478.060,77.174 C478.676,77.482 479.132,77.853 479.430,78.286 C479.727,78.719 479.875,79.247 479.875,79.870 C479.875,80.909 479.460,81.741 478.629,82.368 C477.798,82.995 476.721,83.308 475.396,83.308 C474.465,83.308 473.641,83.143 472.925,82.814 C472.209,82.484 471.648,82.024 471.244,81.433 C470.839,80.843 470.637,80.203 470.637,79.516 C470.637,79.516 472.624,79.516 472.624,79.516 C472.660,80.182 472.927,80.710 473.425,81.100 C473.922,81.491 474.579,81.686 475.396,81.686 C476.148,81.686 476.751,81.534 477.206,81.229 C477.661,80.925 477.888,80.519 477.888,80.010 C477.888,79.473 477.686,79.056 477.281,78.759 C476.876,78.461 476.171,78.205 475.165,77.990 C474.159,77.776 473.360,77.518 472.769,77.217 C472.179,76.916 471.742,76.558 471.459,76.143 C471.176,75.728 471.034,75.233 471.034,74.660 C471.034,73.708 471.437,72.902 472.243,72.243 C473.049,71.585 474.078,71.255 475.331,71.255 C476.649,71.255 477.718,71.595 478.538,72.276 C479.358,72.956 479.768,73.826 479.768,74.886 C479.768,74.886 477.770,74.886 477.770,74.886 C477.770,74.342 477.539,73.873 477.077,73.479 C476.615,73.085 476.033,72.888 475.331,72.888 C474.608,72.888 474.042,73.046 473.634,73.361 C473.226,73.676 473.022,74.088 473.022,74.596 C473.022,75.076 473.211,75.438 473.591,75.681 C473.971,75.924 474.656,76.157 475.648,76.379 zM463.096,69.848 L459.089,71.320 L459.089,69.515 L464.783,67.377 L465.094,67.377 L465.094,83.093 L463.096,83.093 L463.096,69.848 z" fill="#4474CD" /><g id="frame_" ><path id="frame_-stroke" d="M231.000,99.000 L231.000,222.000 L45.000,222.000 L45.000,99.000 L231.000,99.000 zM605.500,99.000 L605.500,222.000 L419.500,222.000 L419.500,99.000 L605.500,99.000 zM980.000,99.000 L980.000,222.000 L794.000,222.000 L794.000,99.000 L980.000,99.000 z" fill="none" stroke="#707070" stroke-width="1" /></g><path id="plots" d="M491.000,150.000 L491.000,192.000 L474.000,192.000 L474.000,150.000 L491.000,150.000 zM522.000,136.000 L522.000,192.000 L505.000,192.000 L505.000,136.000 L522.000,136.000 zM552.000,160.000 L552.000,192.000 L535.000,192.000 L535.000,160.000 L552.000,160.000 zM886.000,140.000 C886.000,146.075 881.075,151.000 875.000,151.000 C868.925,151.000 864.000,146.075 864.000,140.000 C864.000,133.925 868.925,129.000 875.000,129.000 C881.075,129.000 886.000,133.925 886.000,140.000 zM906.939,174.692 C906.911,184.822 898.683,193.015 888.553,193.001 C878.424,192.987 870.219,184.771 870.219,174.641 C870.241,164.480 878.495,156.261 888.656,156.281 C898.786,156.323 906.967,164.562 906.939,174.692 zM908.000,146.000 C908.000,149.866 904.866,153.000 901.000,153.000 C897.134,153.000 894.000,149.866 894.000,146.000 C894.000,142.134 897.134,139.000 901.000,139.000 C904.866,139.000 908.000,142.134 908.000,146.000 z" fill="#4474CD" /></g></svg>